<?xml version="1.0" encoding="utf-8" standalone="no"?><!--Created with Software Ideas Modeler (https://www.softwareideas.net)--><!DOCTYPE svg PUBLIC "-//W3C//DTD SVG 1.1//EN" "http://www.w3.org/Graphics/SVG/1.1/DTD/svg11.dtd"><svg width="1207px" height="1107px" version="1.1" xmlns="http://www.w3.org/2000/svg" xmlns:xlink="http://www.w3.org/1999/xlink"><desc /><defs><clipPath id="cp1"><path d="M 87.27173 17.271729 C 87.27173 21.28778  84.01605 24.543457  80 24.543457  75.98393 24.543457  72.72826 21.28778  72.72826 17.271729  72.72826 13.255661  75.98393 9.999985  80 9.999985  84.01605 9.999985  87.27173 13.255661  87.27173 17.271729 z " /></clipPath><clipPath id="cp2" clip-rule="evenodd"><path d="M -30000 -30000 L 30000 -30000  30000 30000  -30000 30000 z M 87.27173 17.271729 C 87.27173 21.28778  84.01605 24.543457  80 24.543457  75.98393 24.543457  72.72826 21.28778  72.72826 17.271729  72.72826 13.255661  75.98393 9.999985  80 9.999985  84.01605 9.999985  87.27173 13.255661  87.27173 17.271729 z " /></clipPath><clipPath id="cp3"><path d="M 195 10 L 335 10  335 70  195 70 z " /></clipPath><clipPath id="cp4" clip-rule="evenodd"><path d="M -30000 -30000 L 30000 -30000  30000 30000  -30000 30000 z M 195 10 L 335 10  335 70  195 70 z " /></clipPath><clipPath id="cp5"><path d="M 70 131 L 90 131  90 1066  70 1066 z " /></clipPath><clipPath id="cp6" clip-rule="evenodd"><path d="M -30000 -30000 L 30000 -30000  30000 30000  -30000 30000 z M 70 131 L 90 131  90 1066  70 1066 z " /></clipPath><clipPath id="cp7"><path d="M 255 129 L 275 129  275 1066  255 1066 z " /></clipPath><clipPath id="cp8" clip-rule="evenodd"><path d="M -30000 -30000 L 30000 -30000  30000 30000  -30000 30000 z M 255 129 L 275 129  275 1066  255 1066 z " /></clipPath><clipPath id="cp9"><path d="M 436 10 L 576 10  576 70  436 70 z " /></clipPath><clipPath id="cp10" clip-rule="evenodd"><path d="M -30000 -30000 L 30000 -30000  30000 30000  -30000 30000 z M 436 10 L 576 10  576 70  436 70 z " /></clipPath><clipPath id="cp11"><path d="M 597 10 L 737 10  737 70  597 70 z " /></clipPath><clipPath id="cp12" clip-rule="evenodd"><path d="M -30000 -30000 L 30000 -30000  30000 30000  -30000 30000 z M 597 10 L 737 10  737 70  597 70 z " /></clipPath><clipPath id="cp13"><path d="M 877 10 L 959 10  959 70  877 70 z " /></clipPath><clipPath id="cp14" clip-rule="evenodd"><path d="M -30000 -30000 L 30000 -30000  30000 30000  -30000 30000 z M 877 10 L 959 10  959 70  877 70 z " /></clipPath><clipPath id="cp15"><path d="M 1107 10 L 1189 10  1189 70  1107 70 z " /></clipPath><clipPath id="cp16" clip-rule="evenodd"><path d="M -30000 -30000 L 30000 -30000  30000 30000  -30000 30000 z M 1107 10 L 1189 10  1189 70  1107 70 z " /></clipPath><clipPath id="cp17"><path d="M 992 10 L 1074 10  1074 70  992 70 z " /></clipPath><clipPath id="cp18" clip-rule="evenodd"><path d="M -30000 -30000 L 30000 -30000  30000 30000  -30000 30000 z M 992 10 L 1074 10  1074 70  992 70 z " /></clipPath><clipPath id="cp19"><path d="M 908 151 L 928 151  928 203  908 203 z " /></clipPath><clipPath id="cp20" clip-rule="evenodd"><path d="M -30000 -30000 L 30000 -30000  30000 30000  -30000 30000 z M 908 151 L 928 151  928 203  908 203 z " /></clipPath><clipPath id="cp21"><path d="M 657 249 L 677 249  677 628  657 628 z " /></clipPath><clipPath id="cp22" clip-rule="evenodd"><path d="M -30000 -30000 L 30000 -30000  30000 30000  -30000 30000 z M 657 249 L 677 249  677 628  657 628 z " /></clipPath><clipPath id="cp23"><path d="M 1023 281 L 1043 281  1043 630  1023 630 z " /></clipPath><clipPath id="cp24" clip-rule="evenodd"><path d="M -30000 -30000 L 30000 -30000  30000 30000  -30000 30000 z M 1023 281 L 1043 281  1043 630  1023 630 z " /></clipPath><clipPath id="cp25"><path d="M 1138 309 L 1158 309  1158 384  1138 384 z " /></clipPath><clipPath id="cp26" clip-rule="evenodd"><path d="M -30000 -30000 L 30000 -30000  30000 30000  -30000 30000 z M 1138 309 L 1158 309  1158 384  1138 384 z " /></clipPath><clipPath id="cp27"><path d="M 1138 385 L 1158 385  1158 395  1138 395 z " /></clipPath><clipPath id="cp28" clip-rule="evenodd"><path d="M -30000 -30000 L 30000 -30000  30000 30000  -30000 30000 z M 1138 385 L 1158 385  1158 395  1138 395 z " /></clipPath><clipPath id="cp29"><path d="M 908 379 L 928 379  928 541  908 541 z " /></clipPath><clipPath id="cp30" clip-rule="evenodd"><path d="M -30000 -30000 L 30000 -30000  30000 30000  -30000 30000 z M 908 379 L 928 379  928 541  908 541 z " /></clipPath></defs><g clip-path="url(#)" transform="matrix(1 0 0 1 0 0)" /><g clip-path="url(#cp1)" transform="matrix(1 0 0 1 0 0)"><rect x="72px" y="9px" width="17px" height="17px" fill="rgba(85,85,85,0.227)" /></g><g clip-path="url(#)" transform="matrix(1 0 0 1 0 0)" /><g clip-path="url(#cp2)" transform="matrix(1 0 0 1 0 0)"><path fill="none" d="M 87.27173 17.271729 C 87.27173 21.28778  84.01605 24.543457  80 24.543457  75.98393 24.543457  72.72826 21.28778  72.72826 17.271729  72.72826 13.255661  75.98393 9.999985  80 9.999985  84.01605 9.999985  87.27173 13.255661  87.27173 17.271729 z " stroke="rgba(85,85,85,0.031)" stroke-width="16px" stroke-dashoffset="0" stroke-linejoin="round" stroke-miterlimit="10" /><path fill="none" d="M 87.27173 17.271729 C 87.27173 21.28778  84.01605 24.543457  80 24.543457  75.98393 24.543457  72.72826 21.28778  72.72826 17.271729  72.72826 13.255661  75.98393 9.999985  80 9.999985  84.01605 9.999985  87.27173 13.255661  87.27173 17.271729 z " stroke="rgba(85,85,85,0.031)" stroke-width="14px" stroke-dashoffset="0" stroke-linejoin="round" stroke-miterlimit="10" /><path fill="none" d="M 87.27173 17.271729 C 87.27173 21.28778  84.01605 24.543457  80 24.543457  75.98393 24.543457  72.72826 21.28778  72.72826 17.271729  72.72826 13.255661  75.98393 9.999985  80 9.999985  84.01605 9.999985  87.27173 13.255661  87.27173 17.271729 z " stroke="rgba(85,85,85,0.031)" stroke-width="12px" stroke-dashoffset="0" stroke-linejoin="round" stroke-miterlimit="10" /><path fill="none" d="M 87.27173 17.271729 C 87.27173 21.28778  84.01605 24.543457  80 24.543457  75.98393 24.543457  72.72826 21.28778  72.72826 17.271729  72.72826 13.255661  75.98393 9.999985  80 9.999985  84.01605 9.999985  87.27173 13.255661  87.27173 17.271729 z " stroke="rgba(85,85,85,0.031)" stroke-width="10px" stroke-dashoffset="0" stroke-linejoin="round" stroke-miterlimit="10" /><path fill="none" d="M 87.27173 17.271729 C 87.27173 21.28778  84.01605 24.543457  80 24.543457  75.98393 24.543457  72.72826 21.28778  72.72826 17.271729  72.72826 13.255661  75.98393 9.999985  80 9.999985  84.01605 9.999985  87.27173 13.255661  87.27173 17.271729 z " stroke="rgba(85,85,85,0.031)" stroke-width="8px" stroke-dashoffset="0" stroke-linejoin="round" stroke-miterlimit="10" /><path fill="none" d="M 87.27173 17.271729 C 87.27173 21.28778  84.01605 24.543457  80 24.543457  75.98393 24.543457  72.72826 21.28778  72.72826 17.271729  72.72826 13.255661  75.98393 9.999985  80 9.999985  84.01605 9.999985  87.27173 13.255661  87.27173 17.271729 z " stroke="rgba(85,85,85,0.031)" stroke-width="6px" stroke-dashoffset="0" stroke-linejoin="round" stroke-miterlimit="10" /><path fill="none" d="M 87.27173 17.271729 C 87.27173 21.28778  84.01605 24.543457  80 24.543457  75.98393 24.543457  72.72826 21.28778  72.72826 17.271729  72.72826 13.255661  75.98393 9.999985  80 9.999985  84.01605 9.999985  87.27173 13.255661  87.27173 17.271729 z " stroke="rgba(85,85,85,0.031)" stroke-width="4px" stroke-dashoffset="0" stroke-linejoin="round" stroke-miterlimit="10" /><path fill="none" d="M 87.27173 17.271729 C 87.27173 21.28778  84.01605 24.543457  80 24.543457  75.98393 24.543457  72.72826 21.28778  72.72826 17.271729  72.72826 13.255661  75.98393 9.999985  80 9.999985  84.01605 9.999985  87.27173 13.255661  87.27173 17.271729 z " stroke="rgba(85,85,85,0.031)" stroke-width="2px" stroke-dashoffset="0" stroke-linejoin="round" stroke-miterlimit="10" /></g><g clip-path="url(#)" transform="matrix(1 0 0 1 0 0)"><ellipse cx="78.5px" cy="15.5px" rx="7.5px" ry="7.5px" fill="#F2F2F2" /><ellipse cx="78.5px" cy="15.5px" rx="7.5px" ry="7.5px" fill="none" stroke="#555555" stroke-width="2px" stroke-dashoffset="0" stroke-linejoin="round" stroke-miterlimit="10" /><path fill="none" d="M 78 22.543457 L 78 44.358643 M 58 27.391281 L 98 27.391281 M 58 66.17383 L 78 44.358643  98 66.17383 " stroke="#555555" stroke-width="2px" stroke-dashoffset="0" stroke-linejoin="round" stroke-miterlimit="10" /><text x="51px" y="82.62109375px" font-family="Segoe UI" font-size="10.5pt" font-weight="bold" fill="#555555">Student</text><line x1="78px" y1="88px" x2="78px" y2="1068px" stroke="#555555" stroke-width="2px" stroke-dasharray="4,4" stroke-dashoffset="0" stroke-linejoin="miter" stroke-miterlimit="10" /></g><g clip-path="url(#)" transform="matrix(1 0 0 1 0 0)" /><g clip-path="url(#)" transform="matrix(1 0 0 1 0 0)" /><g clip-path="url(#cp3)" transform="matrix(1 0 0 1 0 0)"><rect x="194px" y="9px" width="142px" height="62px" fill="rgba(85,85,85,0.227)" /></g><g clip-path="url(#)" transform="matrix(1 0 0 1 0 0)" /><g clip-path="url(#cp4)" transform="matrix(1 0 0 1 0 0)"><path fill="none" d="M 195 10 L 335 10  335 70  195 70 z " stroke="rgba(85,85,85,0.031)" stroke-width="16px" stroke-dashoffset="0" stroke-linejoin="round" stroke-miterlimit="10" /><path fill="none" d="M 195 10 L 335 10  335 70  195 70 z " stroke="rgba(85,85,85,0.031)" stroke-width="14px" stroke-dashoffset="0" stroke-linejoin="round" stroke-miterlimit="10" /><path fill="none" d="M 195 10 L 335 10  335 70  195 70 z " stroke="rgba(85,85,85,0.031)" stroke-width="12px" stroke-dashoffset="0" stroke-linejoin="round" stroke-miterlimit="10" /><path fill="none" d="M 195 10 L 335 10  335 70  195 70 z " stroke="rgba(85,85,85,0.031)" stroke-width="10px" stroke-dashoffset="0" stroke-linejoin="round" stroke-miterlimit="10" /><path fill="none" d="M 195 10 L 335 10  335 70  195 70 z " stroke="rgba(85,85,85,0.031)" stroke-width="8px" stroke-dashoffset="0" stroke-linejoin="round" stroke-miterlimit="10" /><path fill="none" d="M 195 10 L 335 10  335 70  195 70 z " stroke="rgba(85,85,85,0.031)" stroke-width="6px" stroke-dashoffset="0" stroke-linejoin="round" stroke-miterlimit="10" /><path fill="none" d="M 195 10 L 335 10  335 70  195 70 z " stroke="rgba(85,85,85,0.031)" stroke-width="4px" stroke-dashoffset="0" stroke-linejoin="round" stroke-miterlimit="10" /><path fill="none" d="M 195 10 L 335 10  335 70  195 70 z " stroke="rgba(85,85,85,0.031)" stroke-width="2px" stroke-dashoffset="0" stroke-linejoin="round" stroke-miterlimit="10" /></g><g clip-path="url(#)" transform="matrix(1 0 0 1 0 0)"><rect x="193px" y="8px" width="140px" height="60px" fill="#F2F2F2" /><rect x="193px" y="8px" width="140px" height="60px" fill="none" stroke="#555555" stroke-width="2px" stroke-dashoffset="0" stroke-linejoin="round" stroke-miterlimit="10" /><text x="220px" y="46.62109375px" font-family="Segoe UI" font-size="10.5pt" font-weight="bold" fill="#555555">Login</text><text x="258px" y="46.62109375px" font-family="Segoe UI" font-size="10.5pt" font-weight="bold" fill="#555555">Menu </text><text x="301px" y="46.62109375px" font-family="Segoe UI" font-size="10.5pt" font-weight="bold" fill="#555555">:</text><text x="196px" y="29.621091842651367px" font-family="Segoe UI" font-size="10.5pt" font-weight="bold" fill="#555555"> </text><line x1="263px" y1="68px" x2="263px" y2="1064px" stroke="#555555" stroke-width="2px" stroke-dasharray="6,6" stroke-dashoffset="0" stroke-linejoin="miter" stroke-miterlimit="10" /></g><g clip-path="url(#)" transform="matrix(1 0 0 1 0 0)" /><g clip-path="url(#)" transform="matrix(1 0 0 1 0 0)"><polyline points="88,129 253,129 " fill="none" stroke="#555555" stroke-width="2px" stroke-dashoffset="0" stroke-linejoin="miter" stroke-miterlimit="10" /><polygon points="253,129 235,121 235,137 " fill="#555555" /><text x="146px" y="157.62109375px" font-family="Segoe UI" font-size="10.5pt" font-weight="bold" fill="#555555">run</text><text x="170px" y="157.62109375px" font-family="Segoe UI" font-size="10.5pt" font-weight="bold" fill="#555555">(</text><text x="175px" y="157.62109375px" font-family="Segoe UI" font-size="10.5pt" font-weight="bold" fill="#555555">)</text></g><g clip-path="url(#)" transform="matrix(1 0 0 1 0 0)" /><g clip-path="url(#)" transform="matrix(1 0 0 1 0 0)" /><g clip-path="url(#cp5)" transform="matrix(1 0 0 1 0 0)"><rect x="69px" y="130px" width="22px" height="937px" fill="rgba(85,85,85,0.227)" /></g><g clip-path="url(#)" transform="matrix(1 0 0 1 0 0)" /><g clip-path="url(#cp6)" transform="matrix(1 0 0 1 0 0)"><path fill="none" d="M 70 131 L 90 131  90 1066  70 1066 z " stroke="rgba(85,85,85,0.031)" stroke-width="16px" stroke-dashoffset="0" stroke-linejoin="round" stroke-miterlimit="10" /><path fill="none" d="M 70 131 L 90 131  90 1066  70 1066 z " stroke="rgba(85,85,85,0.031)" stroke-width="14px" stroke-dashoffset="0" stroke-linejoin="round" stroke-miterlimit="10" /><path fill="none" d="M 70 131 L 90 131  90 1066  70 1066 z " stroke="rgba(85,85,85,0.031)" stroke-width="12px" stroke-dashoffset="0" stroke-linejoin="round" stroke-miterlimit="10" /><path fill="none" d="M 70 131 L 90 131  90 1066  70 1066 z " stroke="rgba(85,85,85,0.031)" stroke-width="10px" stroke-dashoffset="0" stroke-linejoin="round" stroke-miterlimit="10" /><path fill="none" d="M 70 131 L 90 131  90 1066  70 1066 z " stroke="rgba(85,85,85,0.031)" stroke-width="8px" stroke-dashoffset="0" stroke-linejoin="round" stroke-miterlimit="10" /><path fill="none" d="M 70 131 L 90 131  90 1066  70 1066 z " stroke="rgba(85,85,85,0.031)" stroke-width="6px" stroke-dashoffset="0" stroke-linejoin="round" stroke-miterlimit="10" /><path fill="none" d="M 70 131 L 90 131  90 1066  70 1066 z " stroke="rgba(85,85,85,0.031)" stroke-width="4px" stroke-dashoffset="0" stroke-linejoin="round" stroke-miterlimit="10" /><path fill="none" d="M 70 131 L 90 131  90 1066  70 1066 z " stroke="rgba(85,85,85,0.031)" stroke-width="2px" stroke-dashoffset="0" stroke-linejoin="round" stroke-miterlimit="10" /></g><g clip-path="url(#)" transform="matrix(1 0 0 1 0 0)"><rect x="68px" y="129px" width="20px" height="935px" fill="#F2F2F2" /><rect x="68px" y="129px" width="20px" height="935px" fill="none" stroke="#555555" stroke-width="2px" stroke-dashoffset="0" stroke-linejoin="round" stroke-miterlimit="10" /></g><g clip-path="url(#)" transform="matrix(1 0 0 1 0 0)" /><g clip-path="url(#)" transform="matrix(1 0 0 1 0 0)" /><g clip-path="url(#cp7)" transform="matrix(1 0 0 1 0 0)"><rect x="254px" y="128px" width="22px" height="939px" fill="rgba(85,85,85,0.227)" /></g><g clip-path="url(#)" transform="matrix(1 0 0 1 0 0)" /><g clip-path="url(#cp8)" transform="matrix(1 0 0 1 0 0)"><path fill="none" d="M 255 129 L 275 129  275 1066  255 1066 z " stroke="rgba(85,85,85,0.031)" stroke-width="16px" stroke-dashoffset="0" stroke-linejoin="round" stroke-miterlimit="10" /><path fill="none" d="M 255 129 L 275 129  275 1066  255 1066 z " stroke="rgba(85,85,85,0.031)" stroke-width="14px" stroke-dashoffset="0" stroke-linejoin="round" stroke-miterlimit="10" /><path fill="none" d="M 255 129 L 275 129  275 1066  255 1066 z " stroke="rgba(85,85,85,0.031)" stroke-width="12px" stroke-dashoffset="0" stroke-linejoin="round" stroke-miterlimit="10" /><path fill="none" d="M 255 129 L 275 129  275 1066  255 1066 z " stroke="rgba(85,85,85,0.031)" stroke-width="10px" stroke-dashoffset="0" stroke-linejoin="round" stroke-miterlimit="10" /><path fill="none" d="M 255 129 L 275 129  275 1066  255 1066 z " stroke="rgba(85,85,85,0.031)" stroke-width="8px" stroke-dashoffset="0" stroke-linejoin="round" stroke-miterlimit="10" /><path fill="none" d="M 255 129 L 275 129  275 1066  255 1066 z " stroke="rgba(85,85,85,0.031)" stroke-width="6px" stroke-dashoffset="0" stroke-linejoin="round" stroke-miterlimit="10" /><path fill="none" d="M 255 129 L 275 129  275 1066  255 1066 z " stroke="rgba(85,85,85,0.031)" stroke-width="4px" stroke-dashoffset="0" stroke-linejoin="round" stroke-miterlimit="10" /><path fill="none" d="M 255 129 L 275 129  275 1066  255 1066 z " stroke="rgba(85,85,85,0.031)" stroke-width="2px" stroke-dashoffset="0" stroke-linejoin="round" stroke-miterlimit="10" /></g><g clip-path="url(#)" transform="matrix(1 0 0 1 0 0)"><rect x="253px" y="127px" width="20px" height="937px" fill="#F2F2F2" /><rect x="253px" y="127px" width="20px" height="937px" fill="none" stroke="#555555" stroke-width="2px" stroke-dashoffset="0" stroke-linejoin="round" stroke-miterlimit="10" /></g><g clip-path="url(#)" transform="matrix(1 0 0 1 0 0)" /><g clip-path="url(#)" transform="matrix(1 0 0 1 0 0)" /><g clip-path="url(#cp9)" transform="matrix(1 0 0 1 0 0)"><rect x="435px" y="9px" width="142px" height="62px" fill="rgba(85,85,85,0.227)" /></g><g clip-path="url(#)" transform="matrix(1 0 0 1 0 0)" /><g clip-path="url(#cp10)" transform="matrix(1 0 0 1 0 0)"><path fill="none" d="M 436 10 L 576 10  576 70  436 70 z " stroke="rgba(85,85,85,0.031)" stroke-width="16px" stroke-dashoffset="0" stroke-linejoin="round" stroke-miterlimit="10" /><path fill="none" d="M 436 10 L 576 10  576 70  436 70 z " stroke="rgba(85,85,85,0.031)" stroke-width="14px" stroke-dashoffset="0" stroke-linejoin="round" stroke-miterlimit="10" /><path fill="none" d="M 436 10 L 576 10  576 70  436 70 z " stroke="rgba(85,85,85,0.031)" stroke-width="12px" stroke-dashoffset="0" stroke-linejoin="round" stroke-miterlimit="10" /><path fill="none" d="M 436 10 L 576 10  576 70  436 70 z " stroke="rgba(85,85,85,0.031)" stroke-width="10px" stroke-dashoffset="0" stroke-linejoin="round" stroke-miterlimit="10" /><path fill="none" d="M 436 10 L 576 10  576 70  436 70 z " stroke="rgba(85,85,85,0.031)" stroke-width="8px" stroke-dashoffset="0" stroke-linejoin="round" stroke-miterlimit="10" /><path fill="none" d="M 436 10 L 576 10  576 70  436 70 z " stroke="rgba(85,85,85,0.031)" stroke-width="6px" stroke-dashoffset="0" stroke-linejoin="round" stroke-miterlimit="10" /><path fill="none" d="M 436 10 L 576 10  576 70  436 70 z " stroke="rgba(85,85,85,0.031)" stroke-width="4px" stroke-dashoffset="0" stroke-linejoin="round" stroke-miterlimit="10" /><path fill="none" d="M 436 10 L 576 10  576 70  436 70 z " stroke="rgba(85,85,85,0.031)" stroke-width="2px" stroke-dashoffset="0" stroke-linejoin="round" stroke-miterlimit="10" /></g><g clip-path="url(#)" transform="matrix(1 0 0 1 0 0)"><rect x="434px" y="8px" width="140px" height="60px" fill="#F2F2F2" /><rect x="434px" y="8px" width="140px" height="60px" fill="none" stroke="#555555" stroke-width="2px" stroke-dashoffset="0" stroke-linejoin="round" stroke-miterlimit="10" /><text x="455px" y="46.62109375px" font-family="Segoe UI" font-size="10.5pt" font-weight="bold" fill="#555555">Teacher</text><text x="507px" y="46.62109375px" font-family="Segoe UI" font-size="10.5pt" font-weight="bold" fill="#555555">Menu </text><text x="550px" y="46.62109375px" font-family="Segoe UI" font-size="10.5pt" font-weight="bold" fill="#555555">: </text><line x1="504px" y1="68px" x2="504px" y2="1064px" stroke="#555555" stroke-width="2px" stroke-dasharray="6,6" stroke-dashoffset="0" stroke-linejoin="miter" stroke-miterlimit="10" /></g><g clip-path="url(#)" transform="matrix(1 0 0 1 0 0)" /><g clip-path="url(#)" transform="matrix(1 0 0 1 0 0)" /><g clip-path="url(#cp11)" transform="matrix(1 0 0 1 0 0)"><rect x="596px" y="9px" width="142px" height="62px" fill="rgba(85,85,85,0.227)" /></g><g clip-path="url(#)" transform="matrix(1 0 0 1 0 0)" /><g clip-path="url(#cp12)" transform="matrix(1 0 0 1 0 0)"><path fill="none" d="M 597 10 L 737 10  737 70  597 70 z " stroke="rgba(85,85,85,0.031)" stroke-width="16px" stroke-dashoffset="0" stroke-linejoin="round" stroke-miterlimit="10" /><path fill="none" d="M 597 10 L 737 10  737 70  597 70 z " stroke="rgba(85,85,85,0.031)" stroke-width="14px" stroke-dashoffset="0" stroke-linejoin="round" stroke-miterlimit="10" /><path fill="none" d="M 597 10 L 737 10  737 70  597 70 z " stroke="rgba(85,85,85,0.031)" stroke-width="12px" stroke-dashoffset="0" stroke-linejoin="round" stroke-miterlimit="10" /><path fill="none" d="M 597 10 L 737 10  737 70  597 70 z " stroke="rgba(85,85,85,0.031)" stroke-width="10px" stroke-dashoffset="0" stroke-linejoin="round" stroke-miterlimit="10" /><path fill="none" d="M 597 10 L 737 10  737 70  597 70 z " stroke="rgba(85,85,85,0.031)" stroke-width="8px" stroke-dashoffset="0" stroke-linejoin="round" stroke-miterlimit="10" /><path fill="none" d="M 597 10 L 737 10  737 70  597 70 z " stroke="rgba(85,85,85,0.031)" stroke-width="6px" stroke-dashoffset="0" stroke-linejoin="round" stroke-miterlimit="10" /><path fill="none" d="M 597 10 L 737 10  737 70  597 70 z " stroke="rgba(85,85,85,0.031)" stroke-width="4px" stroke-dashoffset="0" stroke-linejoin="round" stroke-miterlimit="10" /><path fill="none" d="M 597 10 L 737 10  737 70  597 70 z " stroke="rgba(85,85,85,0.031)" stroke-width="2px" stroke-dashoffset="0" stroke-linejoin="round" stroke-miterlimit="10" /></g><g clip-path="url(#)" transform="matrix(1 0 0 1 0 0)"><rect x="595px" y="8px" width="140px" height="60px" fill="#F2F2F2" /><rect x="595px" y="8px" width="140px" height="60px" fill="none" stroke="#555555" stroke-width="2px" stroke-dashoffset="0" stroke-linejoin="round" stroke-miterlimit="10" /><text x="615px" y="46.62109375px" font-family="Segoe UI" font-size="10.5pt" font-weight="bold" fill="#555555">Student</text><text x="668px" y="46.62109375px" font-family="Segoe UI" font-size="10.5pt" font-weight="bold" fill="#555555">Menu </text><text x="711px" y="46.62109375px" font-family="Segoe UI" font-size="10.5pt" font-weight="bold" fill="#555555">:</text><text x="598px" y="29.621091842651367px" font-family="Segoe UI" font-size="10.5pt" font-weight="bold" fill="#555555"> </text><line x1="665px" y1="68px" x2="665px" y2="1064px" stroke="#555555" stroke-width="2px" stroke-dasharray="6,6" stroke-dashoffset="0" stroke-linejoin="miter" stroke-miterlimit="10" /></g><g clip-path="url(#)" transform="matrix(1 0 0 1 0 0)" /><g clip-path="url(#)" transform="matrix(1 0 0 1 0 0)" /><g clip-path="url(#cp13)" transform="matrix(1 0 0 1 0 0)"><rect x="876px" y="9px" width="84px" height="62px" fill="rgba(85,85,85,0.227)" /></g><g clip-path="url(#)" transform="matrix(1 0 0 1 0 0)" /><g clip-path="url(#cp14)" transform="matrix(1 0 0 1 0 0)"><path fill="none" d="M 877 10 L 959 10  959 70  877 70 z " stroke="rgba(85,85,85,0.031)" stroke-width="16px" stroke-dashoffset="0" stroke-linejoin="round" stroke-miterlimit="10" /><path fill="none" d="M 877 10 L 959 10  959 70  877 70 z " stroke="rgba(85,85,85,0.031)" stroke-width="14px" stroke-dashoffset="0" stroke-linejoin="round" stroke-miterlimit="10" /><path fill="none" d="M 877 10 L 959 10  959 70  877 70 z " stroke="rgba(85,85,85,0.031)" stroke-width="12px" stroke-dashoffset="0" stroke-linejoin="round" stroke-miterlimit="10" /><path fill="none" d="M 877 10 L 959 10  959 70  877 70 z " stroke="rgba(85,85,85,0.031)" stroke-width="10px" stroke-dashoffset="0" stroke-linejoin="round" stroke-miterlimit="10" /><path fill="none" d="M 877 10 L 959 10  959 70  877 70 z " stroke="rgba(85,85,85,0.031)" stroke-width="8px" stroke-dashoffset="0" stroke-linejoin="round" stroke-miterlimit="10" /><path fill="none" d="M 877 10 L 959 10  959 70  877 70 z " stroke="rgba(85,85,85,0.031)" stroke-width="6px" stroke-dashoffset="0" stroke-linejoin="round" stroke-miterlimit="10" /><path fill="none" d="M 877 10 L 959 10  959 70  877 70 z " stroke="rgba(85,85,85,0.031)" stroke-width="4px" stroke-dashoffset="0" stroke-linejoin="round" stroke-miterlimit="10" /><path fill="none" d="M 877 10 L 959 10  959 70  877 70 z " stroke="rgba(85,85,85,0.031)" stroke-width="2px" stroke-dashoffset="0" stroke-linejoin="round" stroke-miterlimit="10" /></g><g clip-path="url(#)" transform="matrix(1 0 0 1 0 0)"><rect x="875px" y="8px" width="82px" height="60px" fill="#F2F2F2" /><rect x="875px" y="8px" width="82px" height="60px" fill="none" stroke="#555555" stroke-width="2px" stroke-dashoffset="0" stroke-linejoin="round" stroke-miterlimit="10" /><text x="885px" y="46.62109375px" font-family="Segoe UI" font-size="10.5pt" font-weight="bold" fill="#555555">Student </text><text x="942px" y="46.62109375px" font-family="Segoe UI" font-size="10.5pt" font-weight="bold" fill="#555555">: </text><line x1="916px" y1="68px" x2="916px" y2="1064px" stroke="#555555" stroke-width="2px" stroke-dasharray="6,6" stroke-dashoffset="0" stroke-linejoin="miter" stroke-miterlimit="10" /></g><g clip-path="url(#)" transform="matrix(1 0 0 1 0 0)" /><g clip-path="url(#)" transform="matrix(1 0 0 1 0 0)" /><g clip-path="url(#cp15)" transform="matrix(1 0 0 1 0 0)"><rect x="1106px" y="9px" width="84px" height="62px" fill="rgba(85,85,85,0.227)" /></g><g clip-path="url(#)" transform="matrix(1 0 0 1 0 0)" /><g clip-path="url(#cp16)" transform="matrix(1 0 0 1 0 0)"><path fill="none" d="M 1107 10 L 1189 10  1189 70  1107 70 z " stroke="rgba(85,85,85,0.031)" stroke-width="16px" stroke-dashoffset="0" stroke-linejoin="round" stroke-miterlimit="10" /><path fill="none" d="M 1107 10 L 1189 10  1189 70  1107 70 z " stroke="rgba(85,85,85,0.031)" stroke-width="14px" stroke-dashoffset="0" stroke-linejoin="round" stroke-miterlimit="10" /><path fill="none" d="M 1107 10 L 1189 10  1189 70  1107 70 z " stroke="rgba(85,85,85,0.031)" stroke-width="12px" stroke-dashoffset="0" stroke-linejoin="round" stroke-miterlimit="10" /><path fill="none" d="M 1107 10 L 1189 10  1189 70  1107 70 z " stroke="rgba(85,85,85,0.031)" stroke-width="10px" stroke-dashoffset="0" stroke-linejoin="round" stroke-miterlimit="10" /><path fill="none" d="M 1107 10 L 1189 10  1189 70  1107 70 z " stroke="rgba(85,85,85,0.031)" stroke-width="8px" stroke-dashoffset="0" stroke-linejoin="round" stroke-miterlimit="10" /><path fill="none" d="M 1107 10 L 1189 10  1189 70  1107 70 z " stroke="rgba(85,85,85,0.031)" stroke-width="6px" stroke-dashoffset="0" stroke-linejoin="round" stroke-miterlimit="10" /><path fill="none" d="M 1107 10 L 1189 10  1189 70  1107 70 z " stroke="rgba(85,85,85,0.031)" stroke-width="4px" stroke-dashoffset="0" stroke-linejoin="round" stroke-miterlimit="10" /><path fill="none" d="M 1107 10 L 1189 10  1189 70  1107 70 z " stroke="rgba(85,85,85,0.031)" stroke-width="2px" stroke-dashoffset="0" stroke-linejoin="round" stroke-miterlimit="10" /></g><g clip-path="url(#)" transform="matrix(1 0 0 1 0 0)"><rect x="1105px" y="8px" width="82px" height="60px" fill="#F2F2F2" /><rect x="1105px" y="8px" width="82px" height="60px" fill="none" stroke="#555555" stroke-width="2px" stroke-dashoffset="0" stroke-linejoin="round" stroke-miterlimit="10" /><text x="1116px" y="46.62109375px" font-family="Segoe UI" font-size="10.5pt" font-weight="bold" fill="#555555">Teacher </text><text x="1172px" y="46.62109375px" font-family="Segoe UI" font-size="10.5pt" font-weight="bold" fill="#555555">: </text><line x1="1146px" y1="68px" x2="1146px" y2="1064px" stroke="#555555" stroke-width="2px" stroke-dasharray="6,6" stroke-dashoffset="0" stroke-linejoin="miter" stroke-miterlimit="10" /></g><g clip-path="url(#)" transform="matrix(1 0 0 1 0 0)" /><g clip-path="url(#)" transform="matrix(1 0 0 1 0 0)" /><g clip-path="url(#cp17)" transform="matrix(1 0 0 1 0 0)"><rect x="991px" y="9px" width="84px" height="62px" fill="rgba(85,85,85,0.227)" /></g><g clip-path="url(#)" transform="matrix(1 0 0 1 0 0)" /><g clip-path="url(#cp18)" transform="matrix(1 0 0 1 0 0)"><path fill="none" d="M 992 10 L 1074 10  1074 70  992 70 z " stroke="rgba(85,85,85,0.031)" stroke-width="16px" stroke-dashoffset="0" stroke-linejoin="round" stroke-miterlimit="10" /><path fill="none" d="M 992 10 L 1074 10  1074 70  992 70 z " stroke="rgba(85,85,85,0.031)" stroke-width="14px" stroke-dashoffset="0" stroke-linejoin="round" stroke-miterlimit="10" /><path fill="none" d="M 992 10 L 1074 10  1074 70  992 70 z " stroke="rgba(85,85,85,0.031)" stroke-width="12px" stroke-dashoffset="0" stroke-linejoin="round" stroke-miterlimit="10" /><path fill="none" d="M 992 10 L 1074 10  1074 70  992 70 z " stroke="rgba(85,85,85,0.031)" stroke-width="10px" stroke-dashoffset="0" stroke-linejoin="round" stroke-miterlimit="10" /><path fill="none" d="M 992 10 L 1074 10  1074 70  992 70 z " stroke="rgba(85,85,85,0.031)" stroke-width="8px" stroke-dashoffset="0" stroke-linejoin="round" stroke-miterlimit="10" /><path fill="none" d="M 992 10 L 1074 10  1074 70  992 70 z " stroke="rgba(85,85,85,0.031)" stroke-width="6px" stroke-dashoffset="0" stroke-linejoin="round" stroke-miterlimit="10" /><path fill="none" d="M 992 10 L 1074 10  1074 70  992 70 z " stroke="rgba(85,85,85,0.031)" stroke-width="4px" stroke-dashoffset="0" stroke-linejoin="round" stroke-miterlimit="10" /><path fill="none" d="M 992 10 L 1074 10  1074 70  992 70 z " stroke="rgba(85,85,85,0.031)" stroke-width="2px" stroke-dashoffset="0" stroke-linejoin="round" stroke-miterlimit="10" /></g><g clip-path="url(#)" transform="matrix(1 0 0 1 0 0)"><rect x="990px" y="8px" width="82px" height="60px" fill="#F2F2F2" /><rect x="990px" y="8px" width="82px" height="60px" fill="none" stroke="#555555" stroke-width="2px" stroke-dashoffset="0" stroke-linejoin="round" stroke-miterlimit="10" /><text x="1004px" y="46.62109375px" font-family="Segoe UI" font-size="10.5pt" font-weight="bold" fill="#555555">Course </text><text x="1055px" y="46.62109375px" font-family="Segoe UI" font-size="10.5pt" font-weight="bold" fill="#555555">: </text><line x1="1031px" y1="68px" x2="1031px" y2="1064px" stroke="#555555" stroke-width="2px" stroke-dasharray="6,6" stroke-dashoffset="0" stroke-linejoin="miter" stroke-miterlimit="10" /></g><g clip-path="url(#)" transform="matrix(1 0 0 1 0 0)" /><g clip-path="url(#)" transform="matrix(1 0 0 1 0 0)"><polyline points="273,149 906,149 " fill="none" stroke="#555555" stroke-width="2px" stroke-dashoffset="0" stroke-linejoin="miter" stroke-miterlimit="10" /><polygon points="906,149 888,141 888,157 " fill="#555555" /><text x="546px" y="177.62109375px" font-family="Segoe UI" font-size="10.5pt" font-weight="bold" fill="#555555">get</text><text x="568px" y="177.62109375px" font-family="Segoe UI" font-size="10.5pt" font-weight="bold" fill="#555555">Student</text></g><g clip-path="url(#)" transform="matrix(1 0 0 1 0 0)" /><g clip-path="url(#)" transform="matrix(1 0 0 1 0 0)" /><g clip-path="url(#cp19)" transform="matrix(1 0 0 1 0 0)"><rect x="907px" y="150px" width="22px" height="54px" fill="rgba(85,85,85,0.227)" /></g><g clip-path="url(#)" transform="matrix(1 0 0 1 0 0)" /><g clip-path="url(#cp20)" transform="matrix(1 0 0 1 0 0)"><path fill="none" d="M 908 151 L 928 151  928 203  908 203 z " stroke="rgba(85,85,85,0.031)" stroke-width="16px" stroke-dashoffset="0" stroke-linejoin="round" stroke-miterlimit="10" /><path fill="none" d="M 908 151 L 928 151  928 203  908 203 z " stroke="rgba(85,85,85,0.031)" stroke-width="14px" stroke-dashoffset="0" stroke-linejoin="round" stroke-miterlimit="10" /><path fill="none" d="M 908 151 L 928 151  928 203  908 203 z " stroke="rgba(85,85,85,0.031)" stroke-width="12px" stroke-dashoffset="0" stroke-linejoin="round" stroke-miterlimit="10" /><path fill="none" d="M 908 151 L 928 151  928 203  908 203 z " stroke="rgba(85,85,85,0.031)" stroke-width="10px" stroke-dashoffset="0" stroke-linejoin="round" stroke-miterlimit="10" /><path fill="none" d="M 908 151 L 928 151  928 203  908 203 z " stroke="rgba(85,85,85,0.031)" stroke-width="8px" stroke-dashoffset="0" stroke-linejoin="round" stroke-miterlimit="10" /><path fill="none" d="M 908 151 L 928 151  928 203  908 203 z " stroke="rgba(85,85,85,0.031)" stroke-width="6px" stroke-dashoffset="0" stroke-linejoin="round" stroke-miterlimit="10" /><path fill="none" d="M 908 151 L 928 151  928 203  908 203 z " stroke="rgba(85,85,85,0.031)" stroke-width="4px" stroke-dashoffset="0" stroke-linejoin="round" stroke-miterlimit="10" /><path fill="none" d="M 908 151 L 928 151  928 203  908 203 z " stroke="rgba(85,85,85,0.031)" stroke-width="2px" stroke-dashoffset="0" stroke-linejoin="round" stroke-miterlimit="10" /></g><g clip-path="url(#)" transform="matrix(1 0 0 1 0 0)"><rect x="906px" y="149px" width="20px" height="52px" fill="#F2F2F2" /><rect x="906px" y="149px" width="20px" height="52px" fill="none" stroke="#555555" stroke-width="2px" stroke-dashoffset="0" stroke-linejoin="round" stroke-miterlimit="10" /></g><g clip-path="url(#)" transform="matrix(1 0 0 1 0 0)" /><g clip-path="url(#)" transform="matrix(1 0 0 1 0 0)"><polyline points="906,199 273,199 " fill="none" stroke="#555555" stroke-width="2px" stroke-dasharray="3.5,3" stroke-dashoffset="0" stroke-linejoin="miter" stroke-miterlimit="10" /><polyline points="291,207 273,199 291,191 " fill="none" stroke="#555555" stroke-width="2px" stroke-dashoffset="0" stroke-linejoin="round" stroke-miterlimit="10" /><text x="533px" y="227.62109375px" font-family="Segoe UI" font-size="10.5pt" font-weight="bold" fill="#555555">return Student</text></g><g clip-path="url(#)" transform="matrix(1 0 0 1 0 0)" /><g clip-path="url(#)" transform="matrix(1 0 0 1 0 0)"><polyline points="273,247 655,247 " fill="none" stroke="#555555" stroke-width="2px" stroke-dashoffset="0" stroke-linejoin="miter" stroke-miterlimit="10" /><polygon points="655,247 637,239 637,255 " fill="#555555" /><text x="412px" y="275.62109375px" font-family="Segoe UI" font-size="10.5pt" font-weight="bold" fill="#555555">Student</text><text x="465px" y="275.62109375px" font-family="Segoe UI" font-size="10.5pt" font-weight="bold" fill="#555555">Menu</text></g><g clip-path="url(#)" transform="matrix(1 0 0 1 0 0)" /><g clip-path="url(#)" transform="matrix(1 0 0 1 0 0)" /><g clip-path="url(#cp21)" transform="matrix(1 0 0 1 0 0)"><rect x="656px" y="248px" width="22px" height="381px" fill="rgba(85,85,85,0.227)" /></g><g clip-path="url(#)" transform="matrix(1 0 0 1 0 0)" /><g clip-path="url(#cp22)" transform="matrix(1 0 0 1 0 0)"><path fill="none" d="M 657 249 L 677 249  677 628  657 628 z " stroke="rgba(85,85,85,0.031)" stroke-width="16px" stroke-dashoffset="0" stroke-linejoin="round" stroke-miterlimit="10" /><path fill="none" d="M 657 249 L 677 249  677 628  657 628 z " stroke="rgba(85,85,85,0.031)" stroke-width="14px" stroke-dashoffset="0" stroke-linejoin="round" stroke-miterlimit="10" /><path fill="none" d="M 657 249 L 677 249  677 628  657 628 z " stroke="rgba(85,85,85,0.031)" stroke-width="12px" stroke-dashoffset="0" stroke-linejoin="round" stroke-miterlimit="10" /><path fill="none" d="M 657 249 L 677 249  677 628  657 628 z " stroke="rgba(85,85,85,0.031)" stroke-width="10px" stroke-dashoffset="0" stroke-linejoin="round" stroke-miterlimit="10" /><path fill="none" d="M 657 249 L 677 249  677 628  657 628 z " stroke="rgba(85,85,85,0.031)" stroke-width="8px" stroke-dashoffset="0" stroke-linejoin="round" stroke-miterlimit="10" /><path fill="none" d="M 657 249 L 677 249  677 628  657 628 z " stroke="rgba(85,85,85,0.031)" stroke-width="6px" stroke-dashoffset="0" stroke-linejoin="round" stroke-miterlimit="10" /><path fill="none" d="M 657 249 L 677 249  677 628  657 628 z " stroke="rgba(85,85,85,0.031)" stroke-width="4px" stroke-dashoffset="0" stroke-linejoin="round" stroke-miterlimit="10" /><path fill="none" d="M 657 249 L 677 249  677 628  657 628 z " stroke="rgba(85,85,85,0.031)" stroke-width="2px" stroke-dashoffset="0" stroke-linejoin="round" stroke-miterlimit="10" /></g><g clip-path="url(#)" transform="matrix(1 0 0 1 0 0)"><rect x="655px" y="247px" width="20px" height="379px" fill="#F2F2F2" /><rect x="655px" y="247px" width="20px" height="379px" fill="none" stroke="#555555" stroke-width="2px" stroke-dashoffset="0" stroke-linejoin="round" stroke-miterlimit="10" /></g><g clip-path="url(#)" transform="matrix(1 0 0 1 0 0)" /><g clip-path="url(#)" transform="matrix(1 0 0 1 0 0)"><polyline points="675,281 1021,281 " fill="none" stroke="#555555" stroke-width="2px" stroke-dashoffset="0" stroke-linejoin="miter" stroke-miterlimit="10" /><polygon points="1021,281 1003,273 1003,289 " fill="#555555" /><text x="805px" y="309.62109375px" font-family="Segoe UI" font-size="10.5pt" font-weight="bold" fill="#555555">take</text><text x="834px" y="309.62109375px" font-family="Segoe UI" font-size="10.5pt" font-weight="bold" fill="#555555">Course</text></g><g clip-path="url(#)" transform="matrix(1 0 0 1 0 0)" /><g clip-path="url(#)" transform="matrix(1 0 0 1 0 0)" /><g clip-path="url(#cp23)" transform="matrix(1 0 0 1 0 0)"><rect x="1022px" y="280px" width="22px" height="351px" fill="rgba(85,85,85,0.227)" /></g><g clip-path="url(#)" transform="matrix(1 0 0 1 0 0)" /><g clip-path="url(#cp24)" transform="matrix(1 0 0 1 0 0)"><path fill="none" d="M 1023 281 L 1043 281  1043 630  1023 630 z " stroke="rgba(85,85,85,0.031)" stroke-width="16px" stroke-dashoffset="0" stroke-linejoin="round" stroke-miterlimit="10" /><path fill="none" d="M 1023 281 L 1043 281  1043 630  1023 630 z " stroke="rgba(85,85,85,0.031)" stroke-width="14px" stroke-dashoffset="0" stroke-linejoin="round" stroke-miterlimit="10" /><path fill="none" d="M 1023 281 L 1043 281  1043 630  1023 630 z " stroke="rgba(85,85,85,0.031)" stroke-width="12px" stroke-dashoffset="0" stroke-linejoin="round" stroke-miterlimit="10" /><path fill="none" d="M 1023 281 L 1043 281  1043 630  1023 630 z " stroke="rgba(85,85,85,0.031)" stroke-width="10px" stroke-dashoffset="0" stroke-linejoin="round" stroke-miterlimit="10" /><path fill="none" d="M 1023 281 L 1043 281  1043 630  1023 630 z " stroke="rgba(85,85,85,0.031)" stroke-width="8px" stroke-dashoffset="0" stroke-linejoin="round" stroke-miterlimit="10" /><path fill="none" d="M 1023 281 L 1043 281  1043 630  1023 630 z " stroke="rgba(85,85,85,0.031)" stroke-width="6px" stroke-dashoffset="0" stroke-linejoin="round" stroke-miterlimit="10" /><path fill="none" d="M 1023 281 L 1043 281  1043 630  1023 630 z " stroke="rgba(85,85,85,0.031)" stroke-width="4px" stroke-dashoffset="0" stroke-linejoin="round" stroke-miterlimit="10" /><path fill="none" d="M 1023 281 L 1043 281  1043 630  1023 630 z " stroke="rgba(85,85,85,0.031)" stroke-width="2px" stroke-dashoffset="0" stroke-linejoin="round" stroke-miterlimit="10" /></g><g clip-path="url(#)" transform="matrix(1 0 0 1 0 0)"><rect x="1021px" y="279px" width="20px" height="349px" fill="#F2F2F2" /><rect x="1021px" y="279px" width="20px" height="349px" fill="none" stroke="#555555" stroke-width="2px" stroke-dashoffset="0" stroke-linejoin="round" stroke-miterlimit="10" /></g><g clip-path="url(#)" transform="matrix(1 0 0 1 0 0)" /><g clip-path="url(#)" transform="matrix(1 0 0 1 0 0)"><polyline points="1041,307 1136,307 " fill="none" stroke="#555555" stroke-width="2px" stroke-dashoffset="0" stroke-linejoin="miter" stroke-miterlimit="10" /><polygon points="1136,307 1118,299 1118,315 " fill="#555555" /><text x="1064px" y="335.62109375px" font-family="Segoe UI" font-size="10.5pt" font-weight="bold" fill="#555555">re</text><text x="1078px" y="335.62109375px" font-family="Segoe UI" font-size="10.5pt" font-weight="bold" fill="#555555">Size</text></g><g clip-path="url(#)" transform="matrix(1 0 0 1 0 0)" /><g clip-path="url(#)" transform="matrix(1 0 0 1 0 0)" /><g clip-path="url(#cp25)" transform="matrix(1 0 0 1 0 0)"><rect x="1137px" y="308px" width="22px" height="77px" fill="rgba(85,85,85,0.227)" /></g><g clip-path="url(#)" transform="matrix(1 0 0 1 0 0)" /><g clip-path="url(#cp26)" transform="matrix(1 0 0 1 0 0)"><path fill="none" d="M 1138 309 L 1158 309  1158 384  1138 384 z " stroke="rgba(85,85,85,0.031)" stroke-width="16px" stroke-dashoffset="0" stroke-linejoin="round" stroke-miterlimit="10" /><path fill="none" d="M 1138 309 L 1158 309  1158 384  1138 384 z " stroke="rgba(85,85,85,0.031)" stroke-width="14px" stroke-dashoffset="0" stroke-linejoin="round" stroke-miterlimit="10" /><path fill="none" d="M 1138 309 L 1158 309  1158 384  1138 384 z " stroke="rgba(85,85,85,0.031)" stroke-width="12px" stroke-dashoffset="0" stroke-linejoin="round" stroke-miterlimit="10" /><path fill="none" d="M 1138 309 L 1158 309  1158 384  1138 384 z " stroke="rgba(85,85,85,0.031)" stroke-width="10px" stroke-dashoffset="0" stroke-linejoin="round" stroke-miterlimit="10" /><path fill="none" d="M 1138 309 L 1158 309  1158 384  1138 384 z " stroke="rgba(85,85,85,0.031)" stroke-width="8px" stroke-dashoffset="0" stroke-linejoin="round" stroke-miterlimit="10" /><path fill="none" d="M 1138 309 L 1158 309  1158 384  1138 384 z " stroke="rgba(85,85,85,0.031)" stroke-width="6px" stroke-dashoffset="0" stroke-linejoin="round" stroke-miterlimit="10" /><path fill="none" d="M 1138 309 L 1158 309  1158 384  1138 384 z " stroke="rgba(85,85,85,0.031)" stroke-width="4px" stroke-dashoffset="0" stroke-linejoin="round" stroke-miterlimit="10" /><path fill="none" d="M 1138 309 L 1158 309  1158 384  1138 384 z " stroke="rgba(85,85,85,0.031)" stroke-width="2px" stroke-dashoffset="0" stroke-linejoin="round" stroke-miterlimit="10" /></g><g clip-path="url(#)" transform="matrix(1 0 0 1 0 0)"><rect x="1136px" y="307px" width="20px" height="75px" fill="#F2F2F2" /><rect x="1136px" y="307px" width="20px" height="75px" fill="none" stroke="#555555" stroke-width="2px" stroke-dashoffset="0" stroke-linejoin="round" stroke-miterlimit="10" /></g><g clip-path="url(#)" transform="matrix(1 0 0 1 0 0)" /><g clip-path="url(#)" transform="matrix(1 0 0 1 0 0)"><polyline points="1136,383 1041,383 " fill="none" stroke="#555555" stroke-width="2px" stroke-dasharray="3.5,3" stroke-dashoffset="0" stroke-linejoin="miter" stroke-miterlimit="10" /><polyline points="1059,391 1041,383 1059,375 " fill="none" stroke="#555555" stroke-width="2px" stroke-dashoffset="0" stroke-linejoin="round" stroke-miterlimit="10" /></g><g clip-path="url(#)" transform="matrix(1 0 0 1 0 0)" /><g clip-path="url(#)" transform="matrix(1 0 0 1 0 0)" /><g clip-path="url(#cp27)" transform="matrix(1 0 0 1 0 0)"><rect x="1137px" y="384px" width="22px" height="12px" fill="rgba(85,85,85,0.227)" /></g><g clip-path="url(#)" transform="matrix(1 0 0 1 0 0)" /><g clip-path="url(#cp28)" transform="matrix(1 0 0 1 0 0)"><path fill="none" d="M 1138 385 L 1158 385  1158 395  1138 395 z " stroke="rgba(85,85,85,0.031)" stroke-width="16px" stroke-dashoffset="0" stroke-linejoin="round" stroke-miterlimit="10" /><path fill="none" d="M 1138 385 L 1158 385  1158 395  1138 395 z " stroke="rgba(85,85,85,0.031)" stroke-width="14px" stroke-dashoffset="0" stroke-linejoin="round" stroke-miterlimit="10" /><path fill="none" d="M 1138 385 L 1158 385  1158 395  1138 395 z " stroke="rgba(85,85,85,0.031)" stroke-width="12px" stroke-dashoffset="0" stroke-linejoin="round" stroke-miterlimit="10" /><path fill="none" d="M 1138 385 L 1158 385  1158 395  1138 395 z " stroke="rgba(85,85,85,0.031)" stroke-width="10px" stroke-dashoffset="0" stroke-linejoin="round" stroke-miterlimit="10" /><path fill="none" d="M 1138 385 L 1158 385  1158 395  1138 395 z " stroke="rgba(85,85,85,0.031)" stroke-width="8px" stroke-dashoffset="0" stroke-linejoin="round" stroke-miterlimit="10" /><path fill="none" d="M 1138 385 L 1158 385  1158 395  1138 395 z " stroke="rgba(85,85,85,0.031)" stroke-width="6px" stroke-dashoffset="0" stroke-linejoin="round" stroke-miterlimit="10" /><path fill="none" d="M 1138 385 L 1158 385  1158 395  1138 395 z " stroke="rgba(85,85,85,0.031)" stroke-width="4px" stroke-dashoffset="0" stroke-linejoin="round" stroke-miterlimit="10" /><path fill="none" d="M 1138 385 L 1158 385  1158 395  1138 395 z " stroke="rgba(85,85,85,0.031)" stroke-width="2px" stroke-dashoffset="0" stroke-linejoin="round" stroke-miterlimit="10" /></g><g clip-path="url(#)" transform="matrix(1 0 0 1 0 0)"><rect x="1136px" y="383px" width="20px" height="10px" fill="#F2F2F2" /><rect x="1136px" y="383px" width="20px" height="10px" fill="none" stroke="#555555" stroke-width="2px" stroke-dashoffset="0" stroke-linejoin="round" stroke-miterlimit="10" /></g><g clip-path="url(#)" transform="matrix(1 0 0 1 0 0)" /><g clip-path="url(#)" transform="matrix(1 0 0 1 0 0)"><polyline points="1021,377 926,377 " fill="none" stroke="#555555" stroke-width="2px" stroke-dashoffset="0" stroke-linejoin="miter" stroke-miterlimit="10" /><polygon points="926,377 944,385 944,369 " fill="#555555" /><text x="931px" y="405.62109375px" font-family="Segoe UI" font-size="10.5pt" font-weight="bold" fill="#555555">add</text><text x="957px" y="405.62109375px" font-family="Segoe UI" font-size="10.5pt" font-weight="bold" fill="#555555">Course</text></g><g clip-path="url(#)" transform="matrix(1 0 0 1 0 0)" /><g clip-path="url(#)" transform="matrix(1 0 0 1 0 0)" /><g clip-path="url(#cp29)" transform="matrix(1 0 0 1 0 0)"><rect x="907px" y="378px" width="22px" height="164px" fill="rgba(85,85,85,0.227)" /></g><g clip-path="url(#)" transform="matrix(1 0 0 1 0 0)" /><g clip-path="url(#cp30)" transform="matrix(1 0 0 1 0 0)"><path fill="none" d="M 908 379 L 928 379  928 541  908 541 z " stroke="rgba(85,85,85,0.031)" stroke-width="16px" stroke-dashoffset="0" stroke-linejoin="round" stroke-miterlimit="10" /><path fill="none" d="M 908 379 L 928 379  928 541  908 541 z " stroke="rgba(85,85,85,0.031)" stroke-width="14px" stroke-dashoffset="0" stroke-linejoin="round" stroke-miterlimit="10" /><path fill="none" d="M 908 379 L 928 379  928 541  908 541 z " stroke="rgba(85,85,85,0.031)" stroke-width="12px" stroke-dashoffset="0" stroke-linejoin="round" stroke-miterlimit="10" /><path fill="none" d="M 908 379 L 928 379  928 541  908 541 z " stroke="rgba(85,85,85,0.031)" stroke-width="10px" stroke-dashoffset="0" stroke-linejoin="round" stroke-miterlimit="10" /><path fill="none" d="M 908 379 L 928 379  928 541  908 541 z " stroke="rgba(85,85,85,0.031)" stroke-width="8px" stroke-dashoffset="0" stroke-linejoin="round" stroke-miterlimit="10" /><path fill="none" d="M 908 379 L 928 379  928 541  908 541 z " stroke="rgba(85,85,85,0.031)" stroke-width="6px" stroke-dashoffset="0" stroke-linejoin="round" stroke-miterlimit="10" /><path fill="none" d="M 908 379 L 928 379  928 541  908 541 z " stroke="rgba(85,85,85,0.031)" stroke-width="4px" stroke-dashoffset="0" stroke-linejoin="round" stroke-miterlimit="10" /><path fill="none" d="M 908 379 L 928 379  928 541  908 541 z " stroke="rgba(85,85,85,0.031)" stroke-width="2px" stroke-dashoffset="0" stroke-linejoin="round" stroke-miterlimit="10" /></g><g clip-path="url(#)" transform="matrix(1 0 0 1 0 0)"><rect x="906px" y="377px" width="20px" height="162px" fill="#F2F2F2" /><rect x="906px" y="377px" width="20px" height="162px" fill="none" stroke="#555555" stroke-width="2px" stroke-dashoffset="0" stroke-linejoin="round" stroke-miterlimit="10" /></g><g clip-path="url(#)" transform="matrix(1 0 0 1 0 0)" /><g clip-path="url(#)" transform="matrix(1 0 0 1 0 0)"><polyline points="906,416 675,416 " fill="none" stroke="#555555" stroke-width="2px" stroke-dasharray="3.5,3" stroke-dashoffset="0" stroke-linejoin="miter" stroke-miterlimit="10" /><polyline points="693,424 675,416 693,408 " fill="none" stroke="#555555" stroke-width="2px" stroke-dashoffset="0" stroke-linejoin="round" stroke-miterlimit="10" /></g><g clip-path="url(#)" transform="matrix(1 0 0 1 0 0)" /><g clip-path="url(#)" transform="matrix(1 0 0 1 0 0)"><polyline points="675,465 1021,465 " fill="none" stroke="#555555" stroke-width="2px" stroke-dashoffset="0" stroke-linejoin="miter" stroke-miterlimit="10" /><polygon points="1021,465 1003,457 1003,473 " fill="#555555" /><text x="791px" y="493.62109375px" font-family="Segoe UI" font-size="10.5pt" font-weight="bold" fill="#555555">Remove</text><text x="846px" y="493.62109375px" font-family="Segoe UI" font-size="10.5pt" font-weight="bold" fill="#555555">Course</text></g><g clip-path="url(#)" transform="matrix(1 0 0 1 0 0)" /><g clip-path="url(#)" transform="matrix(1 0 0 1 0 0)"><polyline points="1021,538 926,538 " fill="none" stroke="#555555" stroke-width="2px" stroke-dashoffset="0" stroke-linejoin="miter" stroke-miterlimit="10" /><polygon points="926,538 944,546 944,530 " fill="#555555" /><text x="941px" y="566.62109375px" font-family="Segoe UI" font-size="10.5pt" font-weight="bold" fill="#555555">Remove</text></g><g clip-path="url(#)" transform="matrix(1 0 0 1 0 0)" /><g clip-path="url(#)" transform="matrix(1 0 0 1 0 0)"><polyline points="1021,595 675,595 " fill="none" stroke="#555555" stroke-width="2px" stroke-dasharray="3.5,3" stroke-dashoffset="0" stroke-linejoin="miter" stroke-miterlimit="10" /><polyline points="693,603 675,595 693,587 " fill="none" stroke="#555555" stroke-width="2px" stroke-dashoffset="0" stroke-linejoin="round" stroke-miterlimit="10" /></g><g clip-path="url(#)" transform="matrix(1 0 0 1 0 0)" /><g clip-path="url(#)" transform="matrix(1 0 0 1 0 0)"><polyline points="253,1054 88,1054 " fill="none" stroke="#555555" stroke-width="2px" stroke-dasharray="3.5,3" stroke-dashoffset="0" stroke-linejoin="miter" stroke-miterlimit="10" /><polyline points="106,1062 88,1054 106,1046 " fill="none" stroke="#555555" stroke-width="2px" stroke-dashoffset="0" stroke-linejoin="round" stroke-miterlimit="10" /><text x="146px" y="1082.62109375px" font-family="Segoe UI" font-size="10.5pt" font-weight="bold" fill="#555555">exit</text></g><g clip-path="url(#)" transform="matrix(1 0 0 1 0 0)" /><g clip-path="url(#)" transform="matrix(1 0 0 1 0 0)"><polyline points="655,598 273,598 " fill="none" stroke="#555555" stroke-width="2px" stroke-dasharray="3.5,3" stroke-dashoffset="0" stroke-linejoin="miter" stroke-miterlimit="10" /><polyline points="291,606 273,598 291,590 " fill="none" stroke="#555555" stroke-width="2px" stroke-dashoffset="0" stroke-linejoin="round" stroke-miterlimit="10" /><text x="437px" y="626.62109375px" font-family="Segoe UI" font-size="10.5pt" font-weight="bold" fill="#555555">logout</text></g><g clip-path="url(#)" transform="matrix(1 0 0 1 0 0)" /></svg>