<?xml version="1.0" encoding="utf-8" standalone="no"?><!--Created with Software Ideas Modeler (https://www.softwareideas.net)--><!DOCTYPE svg PUBLIC "-//W3C//DTD SVG 1.1//EN" "http://www.w3.org/Graphics/SVG/1.1/DTD/svg11.dtd"><svg width="1207px" height="1107px" version="1.1" xmlns="http://www.w3.org/2000/svg" xmlns:xlink="http://www.w3.org/1999/xlink"><desc /><defs><clipPath id="cp1"><path d="M 87.27173 17.271729 C 87.27173 21.28778  84.01605 24.543457  80 24.543457  75.98393 24.543457  72.72826 21.28778  72.72826 17.271729  72.72826 13.255661  75.98393 9.999985  80 9.999985  84.01605 9.999985  87.27173 13.255661  87.27173 17.271729 z " /></clipPath><clipPath id="cp2" clip-rule="evenodd"><path d="M -30000 -30000 L 30000 -30000  30000 30000  -30000 30000 z M 87.27173 17.271729 C 87.27173 21.28778  84.01605 24.543457  80 24.543457  75.98393 24.543457  72.72826 21.28778  72.72826 17.271729  72.72826 13.255661  75.98393 9.999985  80 9.999985  84.01605 9.999985  87.27173 13.255661  87.27173 17.271729 z " /></clipPath><clipPath id="cp3"><path d="M 195 10 L 335 10  335 70  195 70 z " /></clipPath><clipPath id="cp4" clip-rule="evenodd"><path d="M -30000 -30000 L 30000 -30000  30000 30000  -30000 30000 z M 195 10 L 335 10  335 70  195 70 z " /></clipPath><clipPath id="cp5"><path d="M 70 131 L 90 131  90 1066  70 1066 z " /></clipPath><clipPath id="cp6" clip-rule="evenodd"><path d="M -30000 -30000 L 30000 -30000  30000 30000  -30000 30000 z M 70 131 L 90 131  90 1066  70 1066 z " /></clipPath><clipPath id="cp7"><path d="M 255 129 L 275 129  275 1066  255 1066 z " /></clipPath><clipPath id="cp8" clip-rule="evenodd"><path d="M -30000 -30000 L 30000 -30000  30000 30000  -30000 30000 z M 255 129 L 275 129  275 1066  255 1066 z " /></clipPath><clipPath id="cp9"><path d="M 436 10 L 576 10  576 70  436 70 z " /></clipPath><clipPath id="cp10" clip-rule="evenodd"><path d="M -30000 -30000 L 30000 -30000  30000 30000  -30000 30000 z M 436 10 L 576 10  576 70  436 70 z " /></clipPath><clipPath id="cp11"><path d="M 597 10 L 737 10  737 70  597 70 z " /></clipPath><clipPath id="cp12" clip-rule="evenodd"><path d="M -30000 -30000 L 30000 -30000  30000 30000  -30000 30000 z M 597 10 L 737 10  737 70  597 70 z " /></clipPath><clipPath id="cp13"><path d="M 877 10 L 959 10  959 70  877 70 z " /></clipPath><clipPath id="cp14" clip-rule="evenodd"><path d="M -30000 -30000 L 30000 -30000  30000 30000  -30000 30000 z M 877 10 L 959 10  959 70  877 70 z " /></clipPath><clipPath id="cp15"><path d="M 1107 10 L 1189 10  1189 70  1107 70 z " /></clipPath><clipPath id="cp16" clip-rule="evenodd"><path d="M -30000 -30000 L 30000 -30000  30000 30000  -30000 30000 z M 1107 10 L 1189 10  1189 70  1107 70 z " /></clipPath><clipPath id="cp17"><path d="M 992 10 L 1074 10  1074 70  992 70 z " /></clipPath><clipPath id="cp18" clip-rule="evenodd"><path d="M -30000 -30000 L 30000 -30000  30000 30000  -30000 30000 z M 992 10 L 1074 10  1074 70  992 70 z " /></clipPath><clipPath id="cp19"><path d="M 496 673 L 516 673  516 1052  496 1052 z " /></clipPath><clipPath id="cp20" clip-rule="evenodd"><path d="M -30000 -30000 L 30000 -30000  30000 30000  -30000 30000 z M 496 673 L 516 673  516 1052  496 1052 z " /></clipPath><clipPath id="cp21"><path d="M 1138 673 L 1158 673  1158 864  1138 864 z " /></clipPath><clipPath id="cp22" clip-rule="evenodd"><path d="M -30000 -30000 L 30000 -30000  30000 30000  -30000 30000 z M 1138 673 L 1158 673  1158 864  1138 864 z " /></clipPath><clipPath id="cp23"><path d="M 1023 712 L 1043 712  1043 838  1023 838 z " /></clipPath><clipPath id="cp24" clip-rule="evenodd"><path d="M -30000 -30000 L 30000 -30000  30000 30000  -30000 30000 z M 1023 712 L 1043 712  1043 838  1023 838 z " /></clipPath><clipPath id="cp25"><path d="M 1023 894 L 1043 894  1043 1056  1023 1056 z " /></clipPath><clipPath id="cp26" clip-rule="evenodd"><path d="M -30000 -30000 L 30000 -30000  30000 30000  -30000 30000 z M 1023 894 L 1043 894  1043 1056  1023 1056 z " /></clipPath><clipPath id="cp27"><path d="M 908 937 L 928 937  928 982  908 982 z " /></clipPath><clipPath id="cp28" clip-rule="evenodd"><path d="M -30000 -30000 L 30000 -30000  30000 30000  -30000 30000 z M 908 937 L 928 937  928 982  908 982 z " /></clipPath></defs><g clip-path="url(#)" transform="matrix(1 0 0 1 0 0)" /><g clip-path="url(#cp1)" transform="matrix(1 0 0 1 0 0)"><rect x="72px" y="9px" width="17px" height="17px" fill="rgba(85,85,85,0.227)" /></g><g clip-path="url(#)" transform="matrix(1 0 0 1 0 0)" /><g clip-path="url(#cp2)" transform="matrix(1 0 0 1 0 0)"><path fill="none" d="M 87.27173 17.271729 C 87.27173 21.28778  84.01605 24.543457  80 24.543457  75.98393 24.543457  72.72826 21.28778  72.72826 17.271729  72.72826 13.255661  75.98393 9.999985  80 9.999985  84.01605 9.999985  87.27173 13.255661  87.27173 17.271729 z " stroke="rgba(85,85,85,0.031)" stroke-width="16px" stroke-dashoffset="0" stroke-linejoin="round" stroke-miterlimit="10" /><path fill="none" d="M 87.27173 17.271729 C 87.27173 21.28778  84.01605 24.543457  80 24.543457  75.98393 24.543457  72.72826 21.28778  72.72826 17.271729  72.72826 13.255661  75.98393 9.999985  80 9.999985  84.01605 9.999985  87.27173 13.255661  87.27173 17.271729 z " stroke="rgba(85,85,85,0.031)" stroke-width="14px" stroke-dashoffset="0" stroke-linejoin="round" stroke-miterlimit="10" /><path fill="none" d="M 87.27173 17.271729 C 87.27173 21.28778  84.01605 24.543457  80 24.543457  75.98393 24.543457  72.72826 21.28778  72.72826 17.271729  72.72826 13.255661  75.98393 9.999985  80 9.999985  84.01605 9.999985  87.27173 13.255661  87.27173 17.271729 z " stroke="rgba(85,85,85,0.031)" stroke-width="12px" stroke-dashoffset="0" stroke-linejoin="round" stroke-miterlimit="10" /><path fill="none" d="M 87.27173 17.271729 C 87.27173 21.28778  84.01605 24.543457  80 24.543457  75.98393 24.543457  72.72826 21.28778  72.72826 17.271729  72.72826 13.255661  75.98393 9.999985  80 9.999985  84.01605 9.999985  87.27173 13.255661  87.27173 17.271729 z " stroke="rgba(85,85,85,0.031)" stroke-width="10px" stroke-dashoffset="0" stroke-linejoin="round" stroke-miterlimit="10" /><path fill="none" d="M 87.27173 17.271729 C 87.27173 21.28778  84.01605 24.543457  80 24.543457  75.98393 24.543457  72.72826 21.28778  72.72826 17.271729  72.72826 13.255661  75.98393 9.999985  80 9.999985  84.01605 9.999985  87.27173 13.255661  87.27173 17.271729 z " stroke="rgba(85,85,85,0.031)" stroke-width="8px" stroke-dashoffset="0" stroke-linejoin="round" stroke-miterlimit="10" /><path fill="none" d="M 87.27173 17.271729 C 87.27173 21.28778  84.01605 24.543457  80 24.543457  75.98393 24.543457  72.72826 21.28778  72.72826 17.271729  72.72826 13.255661  75.98393 9.999985  80 9.999985  84.01605 9.999985  87.27173 13.255661  87.27173 17.271729 z " stroke="rgba(85,85,85,0.031)" stroke-width="6px" stroke-dashoffset="0" stroke-linejoin="round" stroke-miterlimit="10" /><path fill="none" d="M 87.27173 17.271729 C 87.27173 21.28778  84.01605 24.543457  80 24.543457  75.98393 24.543457  72.72826 21.28778  72.72826 17.271729  72.72826 13.255661  75.98393 9.999985  80 9.999985  84.01605 9.999985  87.27173 13.255661  87.27173 17.271729 z " stroke="rgba(85,85,85,0.031)" stroke-width="4px" stroke-dashoffset="0" stroke-linejoin="round" stroke-miterlimit="10" /><path fill="none" d="M 87.27173 17.271729 C 87.27173 21.28778  84.01605 24.543457  80 24.543457  75.98393 24.543457  72.72826 21.28778  72.72826 17.271729  72.72826 13.255661  75.98393 9.999985  80 9.999985  84.01605 9.999985  87.27173 13.255661  87.27173 17.271729 z " stroke="rgba(85,85,85,0.031)" stroke-width="2px" stroke-dashoffset="0" stroke-linejoin="round" stroke-miterlimit="10" /></g><g clip-path="url(#)" transform="matrix(1 0 0 1 0 0)"><ellipse cx="78.5px" cy="15.5px" rx="7.5px" ry="7.5px" fill="#F2F2F2" /><ellipse cx="78.5px" cy="15.5px" rx="7.5px" ry="7.5px" fill="none" stroke="#555555" stroke-width="2px" stroke-dashoffset="0" stroke-linejoin="round" stroke-miterlimit="10" /><path fill="none" d="M 78 22.543457 L 78 44.358643 M 58 27.391281 L 98 27.391281 M 58 66.17383 L 78 44.358643  98 66.17383 " stroke="#555555" stroke-width="2px" stroke-dashoffset="0" stroke-linejoin="round" stroke-miterlimit="10" /><text x="52px" y="82.62109375px" font-family="Segoe UI" font-size="10.5pt" font-weight="bold" fill="#555555">Teacher</text><line x1="78px" y1="88px" x2="78px" y2="1068px" stroke="#555555" stroke-width="2px" stroke-dasharray="4,4" stroke-dashoffset="0" stroke-linejoin="miter" stroke-miterlimit="10" /></g><g clip-path="url(#)" transform="matrix(1 0 0 1 0 0)" /><g clip-path="url(#)" transform="matrix(1 0 0 1 0 0)" /><g clip-path="url(#cp3)" transform="matrix(1 0 0 1 0 0)"><rect x="194px" y="9px" width="142px" height="62px" fill="rgba(85,85,85,0.227)" /></g><g clip-path="url(#)" transform="matrix(1 0 0 1 0 0)" /><g clip-path="url(#cp4)" transform="matrix(1 0 0 1 0 0)"><path fill="none" d="M 195 10 L 335 10  335 70  195 70 z " stroke="rgba(85,85,85,0.031)" stroke-width="16px" stroke-dashoffset="0" stroke-linejoin="round" stroke-miterlimit="10" /><path fill="none" d="M 195 10 L 335 10  335 70  195 70 z " stroke="rgba(85,85,85,0.031)" stroke-width="14px" stroke-dashoffset="0" stroke-linejoin="round" stroke-miterlimit="10" /><path fill="none" d="M 195 10 L 335 10  335 70  195 70 z " stroke="rgba(85,85,85,0.031)" stroke-width="12px" stroke-dashoffset="0" stroke-linejoin="round" stroke-miterlimit="10" /><path fill="none" d="M 195 10 L 335 10  335 70  195 70 z " stroke="rgba(85,85,85,0.031)" stroke-width="10px" stroke-dashoffset="0" stroke-linejoin="round" stroke-miterlimit="10" /><path fill="none" d="M 195 10 L 335 10  335 70  195 70 z " stroke="rgba(85,85,85,0.031)" stroke-width="8px" stroke-dashoffset="0" stroke-linejoin="round" stroke-miterlimit="10" /><path fill="none" d="M 195 10 L 335 10  335 70  195 70 z " stroke="rgba(85,85,85,0.031)" stroke-width="6px" stroke-dashoffset="0" stroke-linejoin="round" stroke-miterlimit="10" /><path fill="none" d="M 195 10 L 335 10  335 70  195 70 z " stroke="rgba(85,85,85,0.031)" stroke-width="4px" stroke-dashoffset="0" stroke-linejoin="round" stroke-miterlimit="10" /><path fill="none" d="M 195 10 L 335 10  335 70  195 70 z " stroke="rgba(85,85,85,0.031)" stroke-width="2px" stroke-dashoffset="0" stroke-linejoin="round" stroke-miterlimit="10" /></g><g clip-path="url(#)" transform="matrix(1 0 0 1 0 0)"><rect x="193px" y="8px" width="140px" height="60px" fill="#F2F2F2" /><rect x="193px" y="8px" width="140px" height="60px" fill="none" stroke="#555555" stroke-width="2px" stroke-dashoffset="0" stroke-linejoin="round" stroke-miterlimit="10" /><text x="220px" y="46.62109375px" font-family="Segoe UI" font-size="10.5pt" font-weight="bold" fill="#555555">Login</text><text x="258px" y="46.62109375px" font-family="Segoe UI" font-size="10.5pt" font-weight="bold" fill="#555555">Menu </text><text x="301px" y="46.62109375px" font-family="Segoe UI" font-size="10.5pt" font-weight="bold" fill="#555555">:</text><text x="196px" y="29.621091842651367px" font-family="Segoe UI" font-size="10.5pt" font-weight="bold" fill="#555555"> </text><line x1="263px" y1="68px" x2="263px" y2="1064px" stroke="#555555" stroke-width="2px" stroke-dasharray="6,6" stroke-dashoffset="0" stroke-linejoin="miter" stroke-miterlimit="10" /></g><g clip-path="url(#)" transform="matrix(1 0 0 1 0 0)" /><g clip-path="url(#)" transform="matrix(1 0 0 1 0 0)"><polyline points="88,129 253,129 " fill="none" stroke="#555555" stroke-width="2px" stroke-dashoffset="0" stroke-linejoin="miter" stroke-miterlimit="10" /><polygon points="253,129 235,121 235,137 " fill="#555555" /><text x="146px" y="157.62109375px" font-family="Segoe UI" font-size="10.5pt" font-weight="bold" fill="#555555">run</text><text x="170px" y="157.62109375px" font-family="Segoe UI" font-size="10.5pt" font-weight="bold" fill="#555555">(</text><text x="175px" y="157.62109375px" font-family="Segoe UI" font-size="10.5pt" font-weight="bold" fill="#555555">)</text></g><g clip-path="url(#)" transform="matrix(1 0 0 1 0 0)" /><g clip-path="url(#)" transform="matrix(1 0 0 1 0 0)" /><g clip-path="url(#cp5)" transform="matrix(1 0 0 1 0 0)"><rect x="69px" y="130px" width="22px" height="937px" fill="rgba(85,85,85,0.227)" /></g><g clip-path="url(#)" transform="matrix(1 0 0 1 0 0)" /><g clip-path="url(#cp6)" transform="matrix(1 0 0 1 0 0)"><path fill="none" d="M 70 131 L 90 131  90 1066  70 1066 z " stroke="rgba(85,85,85,0.031)" stroke-width="16px" stroke-dashoffset="0" stroke-linejoin="round" stroke-miterlimit="10" /><path fill="none" d="M 70 131 L 90 131  90 1066  70 1066 z " stroke="rgba(85,85,85,0.031)" stroke-width="14px" stroke-dashoffset="0" stroke-linejoin="round" stroke-miterlimit="10" /><path fill="none" d="M 70 131 L 90 131  90 1066  70 1066 z " stroke="rgba(85,85,85,0.031)" stroke-width="12px" stroke-dashoffset="0" stroke-linejoin="round" stroke-miterlimit="10" /><path fill="none" d="M 70 131 L 90 131  90 1066  70 1066 z " stroke="rgba(85,85,85,0.031)" stroke-width="10px" stroke-dashoffset="0" stroke-linejoin="round" stroke-miterlimit="10" /><path fill="none" d="M 70 131 L 90 131  90 1066  70 1066 z " stroke="rgba(85,85,85,0.031)" stroke-width="8px" stroke-dashoffset="0" stroke-linejoin="round" stroke-miterlimit="10" /><path fill="none" d="M 70 131 L 90 131  90 1066  70 1066 z " stroke="rgba(85,85,85,0.031)" stroke-width="6px" stroke-dashoffset="0" stroke-linejoin="round" stroke-miterlimit="10" /><path fill="none" d="M 70 131 L 90 131  90 1066  70 1066 z " stroke="rgba(85,85,85,0.031)" stroke-width="4px" stroke-dashoffset="0" stroke-linejoin="round" stroke-miterlimit="10" /><path fill="none" d="M 70 131 L 90 131  90 1066  70 1066 z " stroke="rgba(85,85,85,0.031)" stroke-width="2px" stroke-dashoffset="0" stroke-linejoin="round" stroke-miterlimit="10" /></g><g clip-path="url(#)" transform="matrix(1 0 0 1 0 0)"><rect x="68px" y="129px" width="20px" height="935px" fill="#F2F2F2" /><rect x="68px" y="129px" width="20px" height="935px" fill="none" stroke="#555555" stroke-width="2px" stroke-dashoffset="0" stroke-linejoin="round" stroke-miterlimit="10" /></g><g clip-path="url(#)" transform="matrix(1 0 0 1 0 0)" /><g clip-path="url(#)" transform="matrix(1 0 0 1 0 0)" /><g clip-path="url(#cp7)" transform="matrix(1 0 0 1 0 0)"><rect x="254px" y="128px" width="22px" height="939px" fill="rgba(85,85,85,0.227)" /></g><g clip-path="url(#)" transform="matrix(1 0 0 1 0 0)" /><g clip-path="url(#cp8)" transform="matrix(1 0 0 1 0 0)"><path fill="none" d="M 255 129 L 275 129  275 1066  255 1066 z " stroke="rgba(85,85,85,0.031)" stroke-width="16px" stroke-dashoffset="0" stroke-linejoin="round" stroke-miterlimit="10" /><path fill="none" d="M 255 129 L 275 129  275 1066  255 1066 z " stroke="rgba(85,85,85,0.031)" stroke-width="14px" stroke-dashoffset="0" stroke-linejoin="round" stroke-miterlimit="10" /><path fill="none" d="M 255 129 L 275 129  275 1066  255 1066 z " stroke="rgba(85,85,85,0.031)" stroke-width="12px" stroke-dashoffset="0" stroke-linejoin="round" stroke-miterlimit="10" /><path fill="none" d="M 255 129 L 275 129  275 1066  255 1066 z " stroke="rgba(85,85,85,0.031)" stroke-width="10px" stroke-dashoffset="0" stroke-linejoin="round" stroke-miterlimit="10" /><path fill="none" d="M 255 129 L 275 129  275 1066  255 1066 z " stroke="rgba(85,85,85,0.031)" stroke-width="8px" stroke-dashoffset="0" stroke-linejoin="round" stroke-miterlimit="10" /><path fill="none" d="M 255 129 L 275 129  275 1066  255 1066 z " stroke="rgba(85,85,85,0.031)" stroke-width="6px" stroke-dashoffset="0" stroke-linejoin="round" stroke-miterlimit="10" /><path fill="none" d="M 255 129 L 275 129  275 1066  255 1066 z " stroke="rgba(85,85,85,0.031)" stroke-width="4px" stroke-dashoffset="0" stroke-linejoin="round" stroke-miterlimit="10" /><path fill="none" d="M 255 129 L 275 129  275 1066  255 1066 z " stroke="rgba(85,85,85,0.031)" stroke-width="2px" stroke-dashoffset="0" stroke-linejoin="round" stroke-miterlimit="10" /></g><g clip-path="url(#)" transform="matrix(1 0 0 1 0 0)"><rect x="253px" y="127px" width="20px" height="937px" fill="#F2F2F2" /><rect x="253px" y="127px" width="20px" height="937px" fill="none" stroke="#555555" stroke-width="2px" stroke-dashoffset="0" stroke-linejoin="round" stroke-miterlimit="10" /></g><g clip-path="url(#)" transform="matrix(1 0 0 1 0 0)" /><g clip-path="url(#)" transform="matrix(1 0 0 1 0 0)" /><g clip-path="url(#cp9)" transform="matrix(1 0 0 1 0 0)"><rect x="435px" y="9px" width="142px" height="62px" fill="rgba(85,85,85,0.227)" /></g><g clip-path="url(#)" transform="matrix(1 0 0 1 0 0)" /><g clip-path="url(#cp10)" transform="matrix(1 0 0 1 0 0)"><path fill="none" d="M 436 10 L 576 10  576 70  436 70 z " stroke="rgba(85,85,85,0.031)" stroke-width="16px" stroke-dashoffset="0" stroke-linejoin="round" stroke-miterlimit="10" /><path fill="none" d="M 436 10 L 576 10  576 70  436 70 z " stroke="rgba(85,85,85,0.031)" stroke-width="14px" stroke-dashoffset="0" stroke-linejoin="round" stroke-miterlimit="10" /><path fill="none" d="M 436 10 L 576 10  576 70  436 70 z " stroke="rgba(85,85,85,0.031)" stroke-width="12px" stroke-dashoffset="0" stroke-linejoin="round" stroke-miterlimit="10" /><path fill="none" d="M 436 10 L 576 10  576 70  436 70 z " stroke="rgba(85,85,85,0.031)" stroke-width="10px" stroke-dashoffset="0" stroke-linejoin="round" stroke-miterlimit="10" /><path fill="none" d="M 436 10 L 576 10  576 70  436 70 z " stroke="rgba(85,85,85,0.031)" stroke-width="8px" stroke-dashoffset="0" stroke-linejoin="round" stroke-miterlimit="10" /><path fill="none" d="M 436 10 L 576 10  576 70  436 70 z " stroke="rgba(85,85,85,0.031)" stroke-width="6px" stroke-dashoffset="0" stroke-linejoin="round" stroke-miterlimit="10" /><path fill="none" d="M 436 10 L 576 10  576 70  436 70 z " stroke="rgba(85,85,85,0.031)" stroke-width="4px" stroke-dashoffset="0" stroke-linejoin="round" stroke-miterlimit="10" /><path fill="none" d="M 436 10 L 576 10  576 70  436 70 z " stroke="rgba(85,85,85,0.031)" stroke-width="2px" stroke-dashoffset="0" stroke-linejoin="round" stroke-miterlimit="10" /></g><g clip-path="url(#)" transform="matrix(1 0 0 1 0 0)"><rect x="434px" y="8px" width="140px" height="60px" fill="#F2F2F2" /><rect x="434px" y="8px" width="140px" height="60px" fill="none" stroke="#555555" stroke-width="2px" stroke-dashoffset="0" stroke-linejoin="round" stroke-miterlimit="10" /><text x="455px" y="46.62109375px" font-family="Segoe UI" font-size="10.5pt" font-weight="bold" fill="#555555">Teacher</text><text x="507px" y="46.62109375px" font-family="Segoe UI" font-size="10.5pt" font-weight="bold" fill="#555555">Menu </text><text x="550px" y="46.62109375px" font-family="Segoe UI" font-size="10.5pt" font-weight="bold" fill="#555555">: </text><line x1="504px" y1="68px" x2="504px" y2="1064px" stroke="#555555" stroke-width="2px" stroke-dasharray="6,6" stroke-dashoffset="0" stroke-linejoin="miter" stroke-miterlimit="10" /></g><g clip-path="url(#)" transform="matrix(1 0 0 1 0 0)" /><g clip-path="url(#)" transform="matrix(1 0 0 1 0 0)" /><g clip-path="url(#cp11)" transform="matrix(1 0 0 1 0 0)"><rect x="596px" y="9px" width="142px" height="62px" fill="rgba(85,85,85,0.227)" /></g><g clip-path="url(#)" transform="matrix(1 0 0 1 0 0)" /><g clip-path="url(#cp12)" transform="matrix(1 0 0 1 0 0)"><path fill="none" d="M 597 10 L 737 10  737 70  597 70 z " stroke="rgba(85,85,85,0.031)" stroke-width="16px" stroke-dashoffset="0" stroke-linejoin="round" stroke-miterlimit="10" /><path fill="none" d="M 597 10 L 737 10  737 70  597 70 z " stroke="rgba(85,85,85,0.031)" stroke-width="14px" stroke-dashoffset="0" stroke-linejoin="round" stroke-miterlimit="10" /><path fill="none" d="M 597 10 L 737 10  737 70  597 70 z " stroke="rgba(85,85,85,0.031)" stroke-width="12px" stroke-dashoffset="0" stroke-linejoin="round" stroke-miterlimit="10" /><path fill="none" d="M 597 10 L 737 10  737 70  597 70 z " stroke="rgba(85,85,85,0.031)" stroke-width="10px" stroke-dashoffset="0" stroke-linejoin="round" stroke-miterlimit="10" /><path fill="none" d="M 597 10 L 737 10  737 70  597 70 z " stroke="rgba(85,85,85,0.031)" stroke-width="8px" stroke-dashoffset="0" stroke-linejoin="round" stroke-miterlimit="10" /><path fill="none" d="M 597 10 L 737 10  737 70  597 70 z " stroke="rgba(85,85,85,0.031)" stroke-width="6px" stroke-dashoffset="0" stroke-linejoin="round" stroke-miterlimit="10" /><path fill="none" d="M 597 10 L 737 10  737 70  597 70 z " stroke="rgba(85,85,85,0.031)" stroke-width="4px" stroke-dashoffset="0" stroke-linejoin="round" stroke-miterlimit="10" /><path fill="none" d="M 597 10 L 737 10  737 70  597 70 z " stroke="rgba(85,85,85,0.031)" stroke-width="2px" stroke-dashoffset="0" stroke-linejoin="round" stroke-miterlimit="10" /></g><g clip-path="url(#)" transform="matrix(1 0 0 1 0 0)"><rect x="595px" y="8px" width="140px" height="60px" fill="#F2F2F2" /><rect x="595px" y="8px" width="140px" height="60px" fill="none" stroke="#555555" stroke-width="2px" stroke-dashoffset="0" stroke-linejoin="round" stroke-miterlimit="10" /><text x="615px" y="46.62109375px" font-family="Segoe UI" font-size="10.5pt" font-weight="bold" fill="#555555">Student</text><text x="668px" y="46.62109375px" font-family="Segoe UI" font-size="10.5pt" font-weight="bold" fill="#555555">Menu </text><text x="711px" y="46.62109375px" font-family="Segoe UI" font-size="10.5pt" font-weight="bold" fill="#555555">:</text><text x="598px" y="29.621091842651367px" font-family="Segoe UI" font-size="10.5pt" font-weight="bold" fill="#555555"> </text><line x1="665px" y1="68px" x2="665px" y2="1064px" stroke="#555555" stroke-width="2px" stroke-dasharray="6,6" stroke-dashoffset="0" stroke-linejoin="miter" stroke-miterlimit="10" /></g><g clip-path="url(#)" transform="matrix(1 0 0 1 0 0)" /><g clip-path="url(#)" transform="matrix(1 0 0 1 0 0)" /><g clip-path="url(#cp13)" transform="matrix(1 0 0 1 0 0)"><rect x="876px" y="9px" width="84px" height="62px" fill="rgba(85,85,85,0.227)" /></g><g clip-path="url(#)" transform="matrix(1 0 0 1 0 0)" /><g clip-path="url(#cp14)" transform="matrix(1 0 0 1 0 0)"><path fill="none" d="M 877 10 L 959 10  959 70  877 70 z " stroke="rgba(85,85,85,0.031)" stroke-width="16px" stroke-dashoffset="0" stroke-linejoin="round" stroke-miterlimit="10" /><path fill="none" d="M 877 10 L 959 10  959 70  877 70 z " stroke="rgba(85,85,85,0.031)" stroke-width="14px" stroke-dashoffset="0" stroke-linejoin="round" stroke-miterlimit="10" /><path fill="none" d="M 877 10 L 959 10  959 70  877 70 z " stroke="rgba(85,85,85,0.031)" stroke-width="12px" stroke-dashoffset="0" stroke-linejoin="round" stroke-miterlimit="10" /><path fill="none" d="M 877 10 L 959 10  959 70  877 70 z " stroke="rgba(85,85,85,0.031)" stroke-width="10px" stroke-dashoffset="0" stroke-linejoin="round" stroke-miterlimit="10" /><path fill="none" d="M 877 10 L 959 10  959 70  877 70 z " stroke="rgba(85,85,85,0.031)" stroke-width="8px" stroke-dashoffset="0" stroke-linejoin="round" stroke-miterlimit="10" /><path fill="none" d="M 877 10 L 959 10  959 70  877 70 z " stroke="rgba(85,85,85,0.031)" stroke-width="6px" stroke-dashoffset="0" stroke-linejoin="round" stroke-miterlimit="10" /><path fill="none" d="M 877 10 L 959 10  959 70  877 70 z " stroke="rgba(85,85,85,0.031)" stroke-width="4px" stroke-dashoffset="0" stroke-linejoin="round" stroke-miterlimit="10" /><path fill="none" d="M 877 10 L 959 10  959 70  877 70 z " stroke="rgba(85,85,85,0.031)" stroke-width="2px" stroke-dashoffset="0" stroke-linejoin="round" stroke-miterlimit="10" /></g><g clip-path="url(#)" transform="matrix(1 0 0 1 0 0)"><rect x="875px" y="8px" width="82px" height="60px" fill="#F2F2F2" /><rect x="875px" y="8px" width="82px" height="60px" fill="none" stroke="#555555" stroke-width="2px" stroke-dashoffset="0" stroke-linejoin="round" stroke-miterlimit="10" /><text x="885px" y="46.62109375px" font-family="Segoe UI" font-size="10.5pt" font-weight="bold" fill="#555555">Student </text><text x="942px" y="46.62109375px" font-family="Segoe UI" font-size="10.5pt" font-weight="bold" fill="#555555">: </text><line x1="916px" y1="68px" x2="916px" y2="1064px" stroke="#555555" stroke-width="2px" stroke-dasharray="6,6" stroke-dashoffset="0" stroke-linejoin="miter" stroke-miterlimit="10" /></g><g clip-path="url(#)" transform="matrix(1 0 0 1 0 0)" /><g clip-path="url(#)" transform="matrix(1 0 0 1 0 0)" /><g clip-path="url(#cp15)" transform="matrix(1 0 0 1 0 0)"><rect x="1106px" y="9px" width="84px" height="62px" fill="rgba(85,85,85,0.227)" /></g><g clip-path="url(#)" transform="matrix(1 0 0 1 0 0)" /><g clip-path="url(#cp16)" transform="matrix(1 0 0 1 0 0)"><path fill="none" d="M 1107 10 L 1189 10  1189 70  1107 70 z " stroke="rgba(85,85,85,0.031)" stroke-width="16px" stroke-dashoffset="0" stroke-linejoin="round" stroke-miterlimit="10" /><path fill="none" d="M 1107 10 L 1189 10  1189 70  1107 70 z " stroke="rgba(85,85,85,0.031)" stroke-width="14px" stroke-dashoffset="0" stroke-linejoin="round" stroke-miterlimit="10" /><path fill="none" d="M 1107 10 L 1189 10  1189 70  1107 70 z " stroke="rgba(85,85,85,0.031)" stroke-width="12px" stroke-dashoffset="0" stroke-linejoin="round" stroke-miterlimit="10" /><path fill="none" d="M 1107 10 L 1189 10  1189 70  1107 70 z " stroke="rgba(85,85,85,0.031)" stroke-width="10px" stroke-dashoffset="0" stroke-linejoin="round" stroke-miterlimit="10" /><path fill="none" d="M 1107 10 L 1189 10  1189 70  1107 70 z " stroke="rgba(85,85,85,0.031)" stroke-width="8px" stroke-dashoffset="0" stroke-linejoin="round" stroke-miterlimit="10" /><path fill="none" d="M 1107 10 L 1189 10  1189 70  1107 70 z " stroke="rgba(85,85,85,0.031)" stroke-width="6px" stroke-dashoffset="0" stroke-linejoin="round" stroke-miterlimit="10" /><path fill="none" d="M 1107 10 L 1189 10  1189 70  1107 70 z " stroke="rgba(85,85,85,0.031)" stroke-width="4px" stroke-dashoffset="0" stroke-linejoin="round" stroke-miterlimit="10" /><path fill="none" d="M 1107 10 L 1189 10  1189 70  1107 70 z " stroke="rgba(85,85,85,0.031)" stroke-width="2px" stroke-dashoffset="0" stroke-linejoin="round" stroke-miterlimit="10" /></g><g clip-path="url(#)" transform="matrix(1 0 0 1 0 0)"><rect x="1105px" y="8px" width="82px" height="60px" fill="#F2F2F2" /><rect x="1105px" y="8px" width="82px" height="60px" fill="none" stroke="#555555" stroke-width="2px" stroke-dashoffset="0" stroke-linejoin="round" stroke-miterlimit="10" /><text x="1116px" y="46.62109375px" font-family="Segoe UI" font-size="10.5pt" font-weight="bold" fill="#555555">Teacher </text><text x="1172px" y="46.62109375px" font-family="Segoe UI" font-size="10.5pt" font-weight="bold" fill="#555555">: </text><line x1="1146px" y1="68px" x2="1146px" y2="1064px" stroke="#555555" stroke-width="2px" stroke-dasharray="6,6" stroke-dashoffset="0" stroke-linejoin="miter" stroke-miterlimit="10" /></g><g clip-path="url(#)" transform="matrix(1 0 0 1 0 0)" /><g clip-path="url(#)" transform="matrix(1 0 0 1 0 0)" /><g clip-path="url(#cp17)" transform="matrix(1 0 0 1 0 0)"><rect x="991px" y="9px" width="84px" height="62px" fill="rgba(85,85,85,0.227)" /></g><g clip-path="url(#)" transform="matrix(1 0 0 1 0 0)" /><g clip-path="url(#cp18)" transform="matrix(1 0 0 1 0 0)"><path fill="none" d="M 992 10 L 1074 10  1074 70  992 70 z " stroke="rgba(85,85,85,0.031)" stroke-width="16px" stroke-dashoffset="0" stroke-linejoin="round" stroke-miterlimit="10" /><path fill="none" d="M 992 10 L 1074 10  1074 70  992 70 z " stroke="rgba(85,85,85,0.031)" stroke-width="14px" stroke-dashoffset="0" stroke-linejoin="round" stroke-miterlimit="10" /><path fill="none" d="M 992 10 L 1074 10  1074 70  992 70 z " stroke="rgba(85,85,85,0.031)" stroke-width="12px" stroke-dashoffset="0" stroke-linejoin="round" stroke-miterlimit="10" /><path fill="none" d="M 992 10 L 1074 10  1074 70  992 70 z " stroke="rgba(85,85,85,0.031)" stroke-width="10px" stroke-dashoffset="0" stroke-linejoin="round" stroke-miterlimit="10" /><path fill="none" d="M 992 10 L 1074 10  1074 70  992 70 z " stroke="rgba(85,85,85,0.031)" stroke-width="8px" stroke-dashoffset="0" stroke-linejoin="round" stroke-miterlimit="10" /><path fill="none" d="M 992 10 L 1074 10  1074 70  992 70 z " stroke="rgba(85,85,85,0.031)" stroke-width="6px" stroke-dashoffset="0" stroke-linejoin="round" stroke-miterlimit="10" /><path fill="none" d="M 992 10 L 1074 10  1074 70  992 70 z " stroke="rgba(85,85,85,0.031)" stroke-width="4px" stroke-dashoffset="0" stroke-linejoin="round" stroke-miterlimit="10" /><path fill="none" d="M 992 10 L 1074 10  1074 70  992 70 z " stroke="rgba(85,85,85,0.031)" stroke-width="2px" stroke-dashoffset="0" stroke-linejoin="round" stroke-miterlimit="10" /></g><g clip-path="url(#)" transform="matrix(1 0 0 1 0 0)"><rect x="990px" y="8px" width="82px" height="60px" fill="#F2F2F2" /><rect x="990px" y="8px" width="82px" height="60px" fill="none" stroke="#555555" stroke-width="2px" stroke-dashoffset="0" stroke-linejoin="round" stroke-miterlimit="10" /><text x="1004px" y="46.62109375px" font-family="Segoe UI" font-size="10.5pt" font-weight="bold" fill="#555555">Course </text><text x="1055px" y="46.62109375px" font-family="Segoe UI" font-size="10.5pt" font-weight="bold" fill="#555555">: </text><line x1="1031px" y1="68px" x2="1031px" y2="1064px" stroke="#555555" stroke-width="2px" stroke-dasharray="6,6" stroke-dashoffset="0" stroke-linejoin="miter" stroke-miterlimit="10" /></g><g clip-path="url(#)" transform="matrix(1 0 0 1 0 0)" /><g clip-path="url(#)" transform="matrix(1 0 0 1 0 0)"><polyline points="253,1054 88,1054 " fill="none" stroke="#555555" stroke-width="2px" stroke-dasharray="3.5,3" stroke-dashoffset="0" stroke-linejoin="miter" stroke-miterlimit="10" /><polyline points="106,1062 88,1054 106,1046 " fill="none" stroke="#555555" stroke-width="2px" stroke-dashoffset="0" stroke-linejoin="round" stroke-miterlimit="10" /><text x="146px" y="1082.62109375px" font-family="Segoe UI" font-size="10.5pt" font-weight="bold" fill="#555555">exit</text></g><g clip-path="url(#)" transform="matrix(1 0 0 1 0 0)" /><g clip-path="url(#)" transform="matrix(1 0 0 1 0 0)"><polyline points="273,671 494,671 " fill="none" stroke="#555555" stroke-width="2px" stroke-dashoffset="0" stroke-linejoin="miter" stroke-miterlimit="10" /><polygon points="494,671 476,663 476,679 " fill="#555555" /><text x="332px" y="699.62109375px" font-family="Segoe UI" font-size="10.5pt" font-weight="bold" fill="#555555">Login</text><text x="370px" y="699.62109375px" font-family="Segoe UI" font-size="10.5pt" font-weight="bold" fill="#555555">Teacher</text></g><g clip-path="url(#)" transform="matrix(1 0 0 1 0 0)" /><g clip-path="url(#)" transform="matrix(1 0 0 1 0 0)" /><g clip-path="url(#cp19)" transform="matrix(1 0 0 1 0 0)"><rect x="495px" y="672px" width="22px" height="381px" fill="rgba(85,85,85,0.227)" /></g><g clip-path="url(#)" transform="matrix(1 0 0 1 0 0)" /><g clip-path="url(#cp20)" transform="matrix(1 0 0 1 0 0)"><path fill="none" d="M 496 673 L 516 673  516 1052  496 1052 z " stroke="rgba(85,85,85,0.031)" stroke-width="16px" stroke-dashoffset="0" stroke-linejoin="round" stroke-miterlimit="10" /><path fill="none" d="M 496 673 L 516 673  516 1052  496 1052 z " stroke="rgba(85,85,85,0.031)" stroke-width="14px" stroke-dashoffset="0" stroke-linejoin="round" stroke-miterlimit="10" /><path fill="none" d="M 496 673 L 516 673  516 1052  496 1052 z " stroke="rgba(85,85,85,0.031)" stroke-width="12px" stroke-dashoffset="0" stroke-linejoin="round" stroke-miterlimit="10" /><path fill="none" d="M 496 673 L 516 673  516 1052  496 1052 z " stroke="rgba(85,85,85,0.031)" stroke-width="10px" stroke-dashoffset="0" stroke-linejoin="round" stroke-miterlimit="10" /><path fill="none" d="M 496 673 L 516 673  516 1052  496 1052 z " stroke="rgba(85,85,85,0.031)" stroke-width="8px" stroke-dashoffset="0" stroke-linejoin="round" stroke-miterlimit="10" /><path fill="none" d="M 496 673 L 516 673  516 1052  496 1052 z " stroke="rgba(85,85,85,0.031)" stroke-width="6px" stroke-dashoffset="0" stroke-linejoin="round" stroke-miterlimit="10" /><path fill="none" d="M 496 673 L 516 673  516 1052  496 1052 z " stroke="rgba(85,85,85,0.031)" stroke-width="4px" stroke-dashoffset="0" stroke-linejoin="round" stroke-miterlimit="10" /><path fill="none" d="M 496 673 L 516 673  516 1052  496 1052 z " stroke="rgba(85,85,85,0.031)" stroke-width="2px" stroke-dashoffset="0" stroke-linejoin="round" stroke-miterlimit="10" /></g><g clip-path="url(#)" transform="matrix(1 0 0 1 0 0)"><rect x="494px" y="671px" width="20px" height="379px" fill="#F2F2F2" /><rect x="494px" y="671px" width="20px" height="379px" fill="none" stroke="#555555" stroke-width="2px" stroke-dashoffset="0" stroke-linejoin="round" stroke-miterlimit="10" /></g><g clip-path="url(#)" transform="matrix(1 0 0 1 0 0)" /><g clip-path="url(#)" transform="matrix(1 0 0 1 0 0)"><polyline points="514,671 1136,671 " fill="none" stroke="#555555" stroke-width="2px" stroke-dashoffset="0" stroke-linejoin="miter" stroke-miterlimit="10" /><polygon points="1136,671 1118,663 1118,679 " fill="#555555" /><text x="782px" y="696.62109375px" font-family="Segoe UI" font-size="10.5pt" font-weight="bold" fill="#555555">get</text><text x="804px" y="696.62109375px" font-family="Segoe UI" font-size="10.5pt" font-weight="bold" fill="#555555">Teacher</text></g><g clip-path="url(#)" transform="matrix(1 0 0 1 0 0)" /><g clip-path="url(#)" transform="matrix(1 0 0 1 0 0)" /><g clip-path="url(#cp21)" transform="matrix(1 0 0 1 0 0)"><rect x="1137px" y="672px" width="22px" height="193px" fill="rgba(85,85,85,0.227)" /></g><g clip-path="url(#)" transform="matrix(1 0 0 1 0 0)" /><g clip-path="url(#cp22)" transform="matrix(1 0 0 1 0 0)"><path fill="none" d="M 1138 673 L 1158 673  1158 864  1138 864 z " stroke="rgba(85,85,85,0.031)" stroke-width="16px" stroke-dashoffset="0" stroke-linejoin="round" stroke-miterlimit="10" /><path fill="none" d="M 1138 673 L 1158 673  1158 864  1138 864 z " stroke="rgba(85,85,85,0.031)" stroke-width="14px" stroke-dashoffset="0" stroke-linejoin="round" stroke-miterlimit="10" /><path fill="none" d="M 1138 673 L 1158 673  1158 864  1138 864 z " stroke="rgba(85,85,85,0.031)" stroke-width="12px" stroke-dashoffset="0" stroke-linejoin="round" stroke-miterlimit="10" /><path fill="none" d="M 1138 673 L 1158 673  1158 864  1138 864 z " stroke="rgba(85,85,85,0.031)" stroke-width="10px" stroke-dashoffset="0" stroke-linejoin="round" stroke-miterlimit="10" /><path fill="none" d="M 1138 673 L 1158 673  1158 864  1138 864 z " stroke="rgba(85,85,85,0.031)" stroke-width="8px" stroke-dashoffset="0" stroke-linejoin="round" stroke-miterlimit="10" /><path fill="none" d="M 1138 673 L 1158 673  1158 864  1138 864 z " stroke="rgba(85,85,85,0.031)" stroke-width="6px" stroke-dashoffset="0" stroke-linejoin="round" stroke-miterlimit="10" /><path fill="none" d="M 1138 673 L 1158 673  1158 864  1138 864 z " stroke="rgba(85,85,85,0.031)" stroke-width="4px" stroke-dashoffset="0" stroke-linejoin="round" stroke-miterlimit="10" /><path fill="none" d="M 1138 673 L 1158 673  1158 864  1138 864 z " stroke="rgba(85,85,85,0.031)" stroke-width="2px" stroke-dashoffset="0" stroke-linejoin="round" stroke-miterlimit="10" /></g><g clip-path="url(#)" transform="matrix(1 0 0 1 0 0)"><rect x="1136px" y="671px" width="20px" height="191px" fill="#F2F2F2" /><rect x="1136px" y="671px" width="20px" height="191px" fill="none" stroke="#555555" stroke-width="2px" stroke-dashoffset="0" stroke-linejoin="round" stroke-miterlimit="10" /></g><g clip-path="url(#)" transform="matrix(1 0 0 1 0 0)" /><g clip-path="url(#)" transform="matrix(1 0 0 1 0 0)"><polyline points="1136,710 1041,710 " fill="none" stroke="#555555" stroke-width="2px" stroke-dashoffset="0" stroke-linejoin="miter" stroke-miterlimit="10" /><polygon points="1041,710 1059,718 1059,702 " fill="#555555" /><text x="1047px" y="738.62109375px" font-family="Segoe UI" font-size="10.5pt" font-weight="bold" fill="#555555">add</text><text x="1073px" y="738.62109375px" font-family="Segoe UI" font-size="10.5pt" font-weight="bold" fill="#555555">Course</text></g><g clip-path="url(#)" transform="matrix(1 0 0 1 0 0)" /><g clip-path="url(#)" transform="matrix(1 0 0 1 0 0)" /><g clip-path="url(#cp23)" transform="matrix(1 0 0 1 0 0)"><rect x="1022px" y="711px" width="22px" height="128px" fill="rgba(85,85,85,0.227)" /></g><g clip-path="url(#)" transform="matrix(1 0 0 1 0 0)" /><g clip-path="url(#cp24)" transform="matrix(1 0 0 1 0 0)"><path fill="none" d="M 1023 712 L 1043 712  1043 838  1023 838 z " stroke="rgba(85,85,85,0.031)" stroke-width="16px" stroke-dashoffset="0" stroke-linejoin="round" stroke-miterlimit="10" /><path fill="none" d="M 1023 712 L 1043 712  1043 838  1023 838 z " stroke="rgba(85,85,85,0.031)" stroke-width="14px" stroke-dashoffset="0" stroke-linejoin="round" stroke-miterlimit="10" /><path fill="none" d="M 1023 712 L 1043 712  1043 838  1023 838 z " stroke="rgba(85,85,85,0.031)" stroke-width="12px" stroke-dashoffset="0" stroke-linejoin="round" stroke-miterlimit="10" /><path fill="none" d="M 1023 712 L 1043 712  1043 838  1023 838 z " stroke="rgba(85,85,85,0.031)" stroke-width="10px" stroke-dashoffset="0" stroke-linejoin="round" stroke-miterlimit="10" /><path fill="none" d="M 1023 712 L 1043 712  1043 838  1023 838 z " stroke="rgba(85,85,85,0.031)" stroke-width="8px" stroke-dashoffset="0" stroke-linejoin="round" stroke-miterlimit="10" /><path fill="none" d="M 1023 712 L 1043 712  1043 838  1023 838 z " stroke="rgba(85,85,85,0.031)" stroke-width="6px" stroke-dashoffset="0" stroke-linejoin="round" stroke-miterlimit="10" /><path fill="none" d="M 1023 712 L 1043 712  1043 838  1023 838 z " stroke="rgba(85,85,85,0.031)" stroke-width="4px" stroke-dashoffset="0" stroke-linejoin="round" stroke-miterlimit="10" /><path fill="none" d="M 1023 712 L 1043 712  1043 838  1023 838 z " stroke="rgba(85,85,85,0.031)" stroke-width="2px" stroke-dashoffset="0" stroke-linejoin="round" stroke-miterlimit="10" /></g><g clip-path="url(#)" transform="matrix(1 0 0 1 0 0)"><rect x="1021px" y="710px" width="20px" height="126px" fill="#F2F2F2" /><rect x="1021px" y="710px" width="20px" height="126px" fill="none" stroke="#555555" stroke-width="2px" stroke-dashoffset="0" stroke-linejoin="round" stroke-miterlimit="10" /></g><g clip-path="url(#)" transform="matrix(1 0 0 1 0 0)" /><g clip-path="url(#)" transform="matrix(1 0 0 1 0 0)"><polyline points="1021,744 514,744 " fill="none" stroke="#555555" stroke-width="2px" stroke-dasharray="3.5,3" stroke-dashoffset="0" stroke-linejoin="miter" stroke-miterlimit="10" /><polyline points="532,752 514,744 532,736 " fill="none" stroke="#555555" stroke-width="2px" stroke-dashoffset="0" stroke-linejoin="round" stroke-miterlimit="10" /></g><g clip-path="url(#)" transform="matrix(1 0 0 1 0 0)" /><g clip-path="url(#)" transform="matrix(1 0 0 1 0 0)"><polyline points="1136,782 1041,782 " fill="none" stroke="#555555" stroke-width="2px" stroke-dashoffset="0" stroke-linejoin="miter" stroke-miterlimit="10" /><polygon points="1041,782 1059,790 1059,774 " fill="#555555" /><text x="1064px" y="810.62109375px" font-family="Segoe UI" font-size="10.5pt" font-weight="bold" fill="#555555">re</text><text x="1078px" y="810.62109375px" font-family="Segoe UI" font-size="10.5pt" font-weight="bold" fill="#555555">Size</text></g><g clip-path="url(#)" transform="matrix(1 0 0 1 0 0)" /><g clip-path="url(#)" transform="matrix(1 0 0 1 0 0)"><polyline points="1021,823 514,823 " fill="none" stroke="#555555" stroke-width="2px" stroke-dasharray="3.5,3" stroke-dashoffset="0" stroke-linejoin="miter" stroke-miterlimit="10" /><polyline points="532,831 514,823 532,815 " fill="none" stroke="#555555" stroke-width="2px" stroke-dashoffset="0" stroke-linejoin="round" stroke-miterlimit="10" /></g><g clip-path="url(#)" transform="matrix(1 0 0 1 0 0)" /><g clip-path="url(#)" transform="matrix(1 0 0 1 0 0)"><polyline points="494,974 273,974 " fill="none" stroke="#555555" stroke-width="2px" stroke-dasharray="3.5,3" stroke-dashoffset="0" stroke-linejoin="miter" stroke-miterlimit="10" /><polyline points="291,982 273,974 291,966 " fill="none" stroke="#555555" stroke-width="2px" stroke-dashoffset="0" stroke-linejoin="round" stroke-miterlimit="10" /><text x="356px" y="1002.62109375px" font-family="Segoe UI" font-size="10.5pt" font-weight="bold" fill="#555555">logout</text></g><g clip-path="url(#)" transform="matrix(1 0 0 1 0 0)" /><g clip-path="url(#)" transform="matrix(1 0 0 1 0 0)"><polyline points="514,892 1021,892 " fill="none" stroke="#555555" stroke-width="2px" stroke-dashoffset="0" stroke-linejoin="miter" stroke-miterlimit="10" /><polygon points="1021,892 1003,884 1003,900 " fill="#555555" /><text x="720px" y="920.62109375px" font-family="Segoe UI" font-size="10.5pt" font-weight="bold" fill="#555555">get</text><text x="742px" y="920.62109375px" font-family="Segoe UI" font-size="10.5pt" font-weight="bold" fill="#555555">Students</text></g><g clip-path="url(#)" transform="matrix(1 0 0 1 0 0)" /><g clip-path="url(#)" transform="matrix(1 0 0 1 0 0)" /><g clip-path="url(#cp25)" transform="matrix(1 0 0 1 0 0)"><rect x="1022px" y="893px" width="22px" height="164px" fill="rgba(85,85,85,0.227)" /></g><g clip-path="url(#)" transform="matrix(1 0 0 1 0 0)" /><g clip-path="url(#cp26)" transform="matrix(1 0 0 1 0 0)"><path fill="none" d="M 1023 894 L 1043 894  1043 1056  1023 1056 z " stroke="rgba(85,85,85,0.031)" stroke-width="16px" stroke-dashoffset="0" stroke-linejoin="round" stroke-miterlimit="10" /><path fill="none" d="M 1023 894 L 1043 894  1043 1056  1023 1056 z " stroke="rgba(85,85,85,0.031)" stroke-width="14px" stroke-dashoffset="0" stroke-linejoin="round" stroke-miterlimit="10" /><path fill="none" d="M 1023 894 L 1043 894  1043 1056  1023 1056 z " stroke="rgba(85,85,85,0.031)" stroke-width="12px" stroke-dashoffset="0" stroke-linejoin="round" stroke-miterlimit="10" /><path fill="none" d="M 1023 894 L 1043 894  1043 1056  1023 1056 z " stroke="rgba(85,85,85,0.031)" stroke-width="10px" stroke-dashoffset="0" stroke-linejoin="round" stroke-miterlimit="10" /><path fill="none" d="M 1023 894 L 1043 894  1043 1056  1023 1056 z " stroke="rgba(85,85,85,0.031)" stroke-width="8px" stroke-dashoffset="0" stroke-linejoin="round" stroke-miterlimit="10" /><path fill="none" d="M 1023 894 L 1043 894  1043 1056  1023 1056 z " stroke="rgba(85,85,85,0.031)" stroke-width="6px" stroke-dashoffset="0" stroke-linejoin="round" stroke-miterlimit="10" /><path fill="none" d="M 1023 894 L 1043 894  1043 1056  1023 1056 z " stroke="rgba(85,85,85,0.031)" stroke-width="4px" stroke-dashoffset="0" stroke-linejoin="round" stroke-miterlimit="10" /><path fill="none" d="M 1023 894 L 1043 894  1043 1056  1023 1056 z " stroke="rgba(85,85,85,0.031)" stroke-width="2px" stroke-dashoffset="0" stroke-linejoin="round" stroke-miterlimit="10" /></g><g clip-path="url(#)" transform="matrix(1 0 0 1 0 0)"><rect x="1021px" y="892px" width="20px" height="162px" fill="#F2F2F2" /><rect x="1021px" y="892px" width="20px" height="162px" fill="none" stroke="#555555" stroke-width="2px" stroke-dashoffset="0" stroke-linejoin="round" stroke-miterlimit="10" /></g><g clip-path="url(#)" transform="matrix(1 0 0 1 0 0)" /><g clip-path="url(#)" transform="matrix(1 0 0 1 0 0)"><polyline points="1021,935 926,935 " fill="none" stroke="#555555" stroke-width="2px" stroke-dashoffset="0" stroke-linejoin="miter" stroke-miterlimit="10" /><polygon points="926,935 944,943 944,927 " fill="#555555" /><text x="926px" y="963.62109375px" font-family="Segoe UI" font-size="10.5pt" font-weight="bold" fill="#555555">call</text><text x="949px" y="963.62109375px" font-family="Segoe UI" font-size="10.5pt" font-weight="bold" fill="#555555">Students</text></g><g clip-path="url(#)" transform="matrix(1 0 0 1 0 0)" /><g clip-path="url(#)" transform="matrix(1 0 0 1 0 0)" /><g clip-path="url(#cp27)" transform="matrix(1 0 0 1 0 0)"><rect x="907px" y="936px" width="22px" height="47px" fill="rgba(85,85,85,0.227)" /></g><g clip-path="url(#)" transform="matrix(1 0 0 1 0 0)" /><g clip-path="url(#cp28)" transform="matrix(1 0 0 1 0 0)"><path fill="none" d="M 908 937 L 928 937  928 982  908 982 z " stroke="rgba(85,85,85,0.031)" stroke-width="16px" stroke-dashoffset="0" stroke-linejoin="round" stroke-miterlimit="10" /><path fill="none" d="M 908 937 L 928 937  928 982  908 982 z " stroke="rgba(85,85,85,0.031)" stroke-width="14px" stroke-dashoffset="0" stroke-linejoin="round" stroke-miterlimit="10" /><path fill="none" d="M 908 937 L 928 937  928 982  908 982 z " stroke="rgba(85,85,85,0.031)" stroke-width="12px" stroke-dashoffset="0" stroke-linejoin="round" stroke-miterlimit="10" /><path fill="none" d="M 908 937 L 928 937  928 982  908 982 z " stroke="rgba(85,85,85,0.031)" stroke-width="10px" stroke-dashoffset="0" stroke-linejoin="round" stroke-miterlimit="10" /><path fill="none" d="M 908 937 L 928 937  928 982  908 982 z " stroke="rgba(85,85,85,0.031)" stroke-width="8px" stroke-dashoffset="0" stroke-linejoin="round" stroke-miterlimit="10" /><path fill="none" d="M 908 937 L 928 937  928 982  908 982 z " stroke="rgba(85,85,85,0.031)" stroke-width="6px" stroke-dashoffset="0" stroke-linejoin="round" stroke-miterlimit="10" /><path fill="none" d="M 908 937 L 928 937  928 982  908 982 z " stroke="rgba(85,85,85,0.031)" stroke-width="4px" stroke-dashoffset="0" stroke-linejoin="round" stroke-miterlimit="10" /><path fill="none" d="M 908 937 L 928 937  928 982  908 982 z " stroke="rgba(85,85,85,0.031)" stroke-width="2px" stroke-dashoffset="0" stroke-linejoin="round" stroke-miterlimit="10" /></g><g clip-path="url(#)" transform="matrix(1 0 0 1 0 0)"><rect x="906px" y="935px" width="20px" height="45px" fill="#F2F2F2" /><rect x="906px" y="935px" width="20px" height="45px" fill="none" stroke="#555555" stroke-width="2px" stroke-dashoffset="0" stroke-linejoin="round" stroke-miterlimit="10" /></g><g clip-path="url(#)" transform="matrix(1 0 0 1 0 0)" /><g clip-path="url(#)" transform="matrix(1 0 0 1 0 0)"><polyline points="926,979 1021,979 " fill="none" stroke="#555555" stroke-width="2px" stroke-dasharray="3.5,3" stroke-dashoffset="0" stroke-linejoin="miter" stroke-miterlimit="10" /><polyline points="1003,971 1021,979 1003,987 " fill="none" stroke="#555555" stroke-width="2px" stroke-dashoffset="0" stroke-linejoin="round" stroke-miterlimit="10" /></g><g clip-path="url(#)" transform="matrix(1 0 0 1 0 0)" /><g clip-path="url(#)" transform="matrix(1 0 0 1 0 0)"><polyline points="1021,1045 514,1045 " fill="none" stroke="#555555" stroke-width="2px" stroke-dasharray="3.5,3" stroke-dashoffset="0" stroke-linejoin="miter" stroke-miterlimit="10" /><polyline points="532,1053 514,1045 532,1037 " fill="none" stroke="#555555" stroke-width="2px" stroke-dashoffset="0" stroke-linejoin="round" stroke-miterlimit="10" /><text x="694px" y="1073.62109375px" font-family="Segoe UI" font-size="10.5pt" font-weight="bold" fill="#555555">return Students list</text></g><g clip-path="url(#)" transform="matrix(1 0 0 1 0 0)" /></svg>